<svg width="530" height="570" viewBox="0 0 530 570" fill="none" xmlns="http://www.w3.org/2000/svg">
<path d="M167.551 569.768H167.379C146.104 569.293 127.65 560.282 115.428 544.403C102.441 527.539 98.4082 504.769 104.296 481.925C106.238 474.473 105.533 469.578 101.624 462.443C92.6322 446.272 84.1345 429.956 76.3168 413.858C75.2289 414.613 74.1893 415.295 73.2248 415.916C72.2596 416.537 71.4808 417.037 70.85 417.499L60.1508 425.256L50.6511 416.123C43.947 409.682 42.3021 402.229 41.3126 397.773C41.1024 396.823 40.9042 395.922 40.731 395.338C39.9518 392.842 39.1972 390.345 38.4426 387.849C33.1487 370.29 28.5473 355.118 15.9184 344.013C1.19923 331.081 -3.51341 312.147 2.62168 290.716L3.53729 287.49C7.87887 272.281 12.3561 256.549 20.7423 241.693C22.6966 238.223 23.0799 235.922 20.3093 230.601C8.81837 208.439 1.95351 194.071 5.46635 178.984C8.97914 163.897 21.5463 153.864 41.7204 138.971C42.5028 138.437 43.2247 137.819 43.8728 137.133C43.8876 136.571 43.8543 136.009 43.7738 135.453C41.2487 117.547 44.3795 99.3094 52.7414 83.2147C61.1264 67.4037 74.338 54.5805 90.5162 46.5511C103.331 40.0698 117.521 36.6612 131.929 36.603C155.087 36.6386 177.3 45.6395 193.775 61.6622C196.335 64.0975 197.263 64.4995 200.862 64.4995H201.505C217.585 64.1829 233.999 61.2119 254.928 54.8679C275.423 48.6578 283.958 45.3214 299.259 32.3412C323.465 11.787 357.48 0 392.584 0C421.627 0 448.245 8.30437 467.702 23.3668C502.001 50.0214 515.805 89.2783 507.617 136.902C504.178 156.835 505.477 171.581 512.057 187.799C524.995 219.485 530.875 253.534 529.299 287.648C527.889 319.075 520.22 352.184 506.515 386.12L500.207 401.73L484.968 394.181C483.769 393.595 482.617 392.924 481.516 392.172C468.603 417.743 454.491 438.321 437.991 455.819C411.645 483.752 383.431 504.209 351.741 518.346L329.649 528.208V517.31C307.112 534.455 285.207 548.033 260.308 557.579L246.702 562.778L242.559 554.254C228.408 564.367 211.371 569.814 193.885 569.816L167.551 569.768Z" fill="white"/>
<path d="M167.723 554.376C132.397 553.585 109.886 522.619 119.484 485.749C122.527 474.059 120.931 465.049 115.377 455.101C105.482 437.283 96.1351 419.175 87.3364 400.78C82.6605 390.942 78.3189 389.992 71.1078 398.102C68.5351 400.987 64.7624 402.863 61.6083 405.152C57.1182 400.841 57.1553 395.508 55.708 390.881C49.1524 369.876 44.4525 348.47 26.3689 332.567C15.4593 322.972 13.5791 309.31 17.7105 294.93C22.2004 279.258 26.3689 263.465 34.4582 249.206C39.542 240.207 38.812 232.366 34.285 223.635C13.0348 182.661 13.8263 178.85 51.144 151.331C57.7986 146.46 60.4207 141.808 59.3199 133.516C55.201 102.21 70.2665 74.0947 97.6642 60.2861C126.237 45.9177 159.819 50.5448 182.913 72.7061C188.615 78.1854 193.66 80.0119 201.885 79.9145C221.861 79.525 240.615 75.3606 259.601 69.6011C281.148 63.0744 291.947 58.9466 309.535 44.0303C349.673 9.93583 419.311 5.3574 458.076 35.5066C490.669 60.8339 498.77 96.5964 492.264 134.393C488.628 155.568 489.393 173.358 497.608 193.572C522.89 255.83 517.225 318.199 492.054 380.482C484.126 376.561 485.585 367.197 478.448 362.217C465.386 392.659 449.529 421.213 426.671 445.456C403.813 469.7 377.7 490.035 345.417 504.44V484.957C316.584 509.14 288.519 530.388 254.764 543.32C251.288 536.099 255.667 529.316 253.267 521.755C248.492 526.991 244.287 532.032 239.661 536.647C227.527 548.653 209.678 554.486 193.895 554.449L167.723 554.376Z" fill="black"/>
<path d="M408.8 84.203C369.739 88.1235 359.831 109.104 381.515 141.433C385.984 147.757 391.13 153.592 396.866 158.834C392.623 142.675 383.556 127.065 395.257 107.691C398.844 135.698 416.445 152.647 431.993 171.399C460.825 206.212 470.338 247.552 468.692 295.6C458.117 277.336 452.303 259.972 439.216 245.385C454.604 331.607 396.716 407.065 360.178 431.686C397.199 358.627 409.84 289.22 381.886 215.345C389.653 289.89 383.951 362.341 346.646 429.446C332.496 454.895 313.942 477.19 287.361 495.078C296.217 477.24 304.863 461.58 311.951 445.264C332.904 396.971 335.217 346.389 330.405 294.834C328.018 269.336 325.223 243.498 335.031 218.498C303.725 249.975 321.141 299.534 323.281 339.047C317.294 311.26 290.576 281.72 286.383 256.063C281.251 224.648 295.512 202.767 326.299 189.945C312.792 178.401 296.477 181.421 281.77 177.926C285.728 168.684 294.807 165.981 303.304 157.92C284.405 162.608 272.147 172.532 260.174 182.505C241.904 197.786 223.722 212.849 198.847 216.672C186.853 218.626 174.583 218.183 162.767 215.369C189.299 203.473 206.962 184.294 224.896 165.713C259.827 129.512 300.348 122.108 346.572 140.885C348.255 141.561 349.974 142.15 351.718 142.651C352.015 142.736 352.498 142.225 352.956 141.993C324.086 117.469 285.42 117.993 193.394 144.148C222.808 108.568 279.482 95.21 339.484 110.054C339.014 108.665 338.928 107.326 338.247 106.534C324.27 91.0464 324.283 90.6201 340.288 76.592C380.81 41.061 445.76 59.5453 458.166 112.014C449.335 100.459 440.614 91.1315 429.26 84.8356C417.751 78.3911 404.783 74.8918 391.546 74.6566C396.555 80.4527 404.818 78.3211 408.8 84.203Z" fill="url(#paint0_linear_131_19)"/>
<path d="M265.985 426.485L255.707 438.966C247.976 427.776 245.477 415.429 240.777 404.141C232.626 384.525 225.71 364.397 217.658 344.731C215.419 339.277 215.297 335.794 221.691 332.847C198.982 331.313 178.783 341.018 157.187 341.882C142.145 342.491 127.216 345.779 112.249 347.97C107.808 348.64 104.259 347.204 100.672 344.853C93.4484 340.116 86.9793 336.585 76.7252 339.557C67.2133 342.308 59.5935 332.555 52.2338 327.076C46.8286 323.057 52.8032 317.334 54.1267 310.807C68.7099 321.389 82.2905 328.671 101.896 325.967C121.501 323.264 132.125 314.643 138.854 297.45C141.242 300.019 142.343 301.48 143.716 302.637C146.883 305.279 147.427 312.378 153.265 310.175C158.423 308.262 158.793 302.271 159.832 297.425C160.982 292.007 158.25 288.902 153.303 287.136C136.134 280.837 118.982 274.488 101.846 268.092C93.0889 264.828 85.9152 270.527 78.0239 272.147C72.2717 273.364 66.6439 275.155 57.466 277.638C72.4948 252.493 91.5686 237.748 116.764 230.369C121.34 234.436 114.858 238.04 116.899 241.754C117.641 241.864 118.533 242.29 119.127 242.034C151.571 228.214 184.286 221.748 216.619 241.547C233.936 252.165 246.578 268.189 260.147 282.838C266.159 289.352 263.858 299.24 264.167 307.63C265.404 338.144 266.332 368.671 269.993 399.757C274.941 389.395 279.888 379.058 286.184 365.858C286.184 390.893 286.333 412.993 285.974 435.082C285.974 437.809 283.401 440.695 281.57 443.192C269.634 459.447 257.562 475.606 243.869 490.851L267.976 426.753L265.985 426.485Z" fill="url(#paint1_linear_131_19)"/>
<path d="M103.248 170.07L118.772 167.05C108.963 176.792 99.9582 184.402 101.616 197.492C103.607 213.321 119.662 208.39 129.669 216.694C113.873 217.766 101.084 223.526 87.9224 228.299C80.5011 230.978 74.8117 228.372 70.3342 221.747C58.7196 204.543 59.202 190.393 74.045 175.306C84.546 164.64 96.4331 155.3 107.59 145.242C112.425 141.073 117.018 136.637 121.345 131.958C133.021 118.794 132.737 114.655 120.108 103.196L127.454 101.26C119.179 94.7332 109.841 96.3894 99.7352 94.9647C126.131 83.0199 158.463 89.3757 172.91 109.577C176.349 114.448 179.096 113.485 182.733 113.558C190.686 113.741 198.65 113.62 210.587 113.62C169.657 128.085 133.143 142.722 103.248 170.07Z" fill="url(#paint2_linear_131_19)"/>
<path d="M212.749 390.418C210.783 401.085 203.781 409.195 204.808 420.86C208.902 417.316 211.648 414.26 215.025 412.214C219.44 409.523 223.584 404.969 229.868 408.452C236.151 411.934 235.199 417.365 234.655 422.759C233.418 434.303 227.358 443.971 221.916 453.834C218.205 460.458 214.061 466.814 209.547 474.303C205.267 466.108 201.742 459.398 197.796 451.861C195.001 455.721 192.477 458.875 190.375 462.248C186.664 468.117 183.769 477.59 174.752 472.415C167.269 468.129 159.908 460.555 162.654 450.327C169.791 423.38 185.735 403.203 212.749 390.418Z" fill="url(#paint3_linear_131_19)"/>
<path d="M190.434 389.627C183.78 385.353 179.302 379.982 177.583 374.491C174.725 365.322 169.839 364.518 161.416 365.444C146.449 367.112 131.311 367.367 116.245 368.257C112.126 368.5 107.661 369.474 104.197 366.966C91.6671 357.882 82.5262 361.827 74.2386 377.207C72.2476 367.027 66.9042 358.783 72.4454 353.474C77.9868 348.165 87.5356 347.812 95.2291 353.474C102.923 359.136 111.309 358.917 120.116 357.98C143.297 355.544 166.512 353.292 189.654 350.418C197.831 349.407 200.898 350.978 198.313 359.514C195.394 369.206 193.155 379.13 190.434 389.627Z" fill="url(#paint4_linear_131_19)"/>
<path d="M217.104 224.659C239.195 222.856 252.343 206.15 274.558 200.805C264.81 215.076 266.147 233.438 247.704 238.662C235.286 242.18 225.849 236.397 217.104 224.659Z" fill="url(#paint5_linear_131_19)"/>
<path d="M155.913 470.566C170.756 489.781 181.047 490.889 196.979 473.732L204.501 495.747C187.616 494.992 172.551 493.628 157.497 493.884C146.922 494.067 147.083 489.586 150.571 482.67C152.587 478.7 151.645 473.501 155.913 470.566Z" fill="url(#paint6_linear_131_19)"/>
<path d="M147.03 461.249C134.982 437.151 123.591 414.357 112.186 391.562C125.137 398.868 130.902 412.359 140.871 422.004C153.314 433.936 151.248 446.917 147.03 461.249Z" fill="url(#paint7_linear_131_19)"/>
<path d="M120.997 288.525C94.9482 298.085 73.6235 297.439 56.2202 286.59C82.4922 277.676 98.1146 278.176 120.997 288.525Z" fill="url(#paint8_linear_131_19)"/>
<path d="M232.194 468.508C226.678 477.824 220.728 486.931 215.793 496.515C211.996 503.93 207.134 506.451 198.476 506.013C180.912 505.136 163.286 505.757 145.561 505.757C156.693 524.923 169.965 532.058 186.058 527.675C221.47 518.006 221.47 518.007 232.392 483.194C233.333 480.198 234.261 477.19 235.189 474.195C238.231 468.91 240.445 463.407 240.358 456.478C235.386 459.693 233.444 463.869 232.194 468.508Z" fill="url(#paint9_linear_131_19)"/>
<path d="M433.61 154.814C433.61 154.814 368.856 129.462 318.143 226.241C318.143 226.241 380.557 171.702 448.426 185.535L433.61 154.814Z" fill="black"/>
<path d="M447.962 184.343C447.962 184.343 390.916 167.028 318.198 226.243C318.198 226.243 394.886 201.245 462.793 215.065L447.962 184.343Z" fill="black"/>
<path d="M462.502 215.062C462.502 215.062 409.451 189.43 318.143 226.24C318.143 226.24 418.468 212.006 477.333 245.723L462.502 215.062Z" fill="black"/>
<path d="M429.594 159.476C429.594 159.476 376.616 138.691 335.142 217.924C335.142 217.924 386.201 173.309 441.677 184.645L429.594 159.476Z" fill="white"/>
<path d="M441.365 183.611C441.365 183.611 394.734 169.425 335.226 217.876C335.226 217.876 397.938 197.444 453.45 208.78L441.365 183.611Z" fill="#0039A6"/>
<path d="M453.276 208.693C453.276 208.693 409.837 187.701 335.226 217.789C335.226 217.789 417.331 206.148 465.447 233.777L453.276 208.693Z" fill="#D52B1E"/>
<defs>
<linearGradient id="paint0_linear_131_19" x1="162.791" y1="276.642" x2="468.866" y2="276.642" gradientUnits="userSpaceOnUse">
<stop stop-color="#FF6318"/>
<stop offset="1" stop-color="#C60000"/>
</linearGradient>
<linearGradient id="paint1_linear_131_19" x1="50.0075" y1="360.013" x2="286.209" y2="360.013" gradientUnits="userSpaceOnUse">
<stop stop-color="#FF6318"/>
<stop offset="1" stop-color="#C60000"/>
</linearGradient>
<linearGradient id="paint2_linear_131_19" x1="62.1953" y1="159.196" x2="210.636" y2="159.196" gradientUnits="userSpaceOnUse">
<stop stop-color="#FF6318"/>
<stop offset="1" stop-color="#C60000"/>
</linearGradient>
<linearGradient id="paint3_linear_131_19" x1="161.949" y1="432.354" x2="235.014" y2="432.354" gradientUnits="userSpaceOnUse">
<stop stop-color="#FF6318"/>
<stop offset="1" stop-color="#C60000"/>
</linearGradient>
<linearGradient id="paint4_linear_131_19" x1="70.0087" y1="369.474" x2="199.216" y2="369.474" gradientUnits="userSpaceOnUse">
<stop stop-color="#FF6318"/>
<stop offset="1" stop-color="#C60000"/>
</linearGradient>
<linearGradient id="paint5_linear_131_19" x1="217.104" y1="220.251" x2="274.558" y2="220.251" gradientUnits="userSpaceOnUse">
<stop stop-color="#FF6318"/>
<stop offset="1" stop-color="#C60000"/>
</linearGradient>
<linearGradient id="paint6_linear_131_19" x1="148.468" y1="483.12" x2="204.501" y2="483.12" gradientUnits="userSpaceOnUse">
<stop stop-color="#FF6318"/>
<stop offset="1" stop-color="#C60000"/>
</linearGradient>
<linearGradient id="paint7_linear_131_19" x1="112.186" y1="426.411" x2="150.295" y2="426.411" gradientUnits="userSpaceOnUse">
<stop stop-color="#FF6318"/>
<stop offset="1" stop-color="#C60000"/>
</linearGradient>
<linearGradient id="paint8_linear_131_19" x1="56.2202" y1="287.759" x2="120.997" y2="287.759" gradientUnits="userSpaceOnUse">
<stop stop-color="#FF6318"/>
<stop offset="1" stop-color="#C60000"/>
</linearGradient>
<linearGradient id="paint9_linear_131_19" x1="145.61" y1="492.715" x2="240.42" y2="492.715" gradientUnits="userSpaceOnUse">
<stop stop-color="#FF6318"/>
<stop offset="1" stop-color="#C60000"/>
</linearGradient>
</defs>
</svg>
