<svg width="256" height="256" version="1.1" xmlns="http://www.w3.org/2000/svg" desc="Created with imagetracer.js version 1.2.6" ><path fill="rgb(0,0,0)" stroke="rgb(0,0,0)" stroke-width="1" opacity="0" d="M 0 0 L 256 0 L 256 169.5 L 255 169.5 L 252 120.5 L 251 119.5 L 250 95.5 L 249 94.5 L 249 82.5 L 248 81.5 L 248 69.5 L 247 68.5 L 247 56.5 L 246 55.5 L 246 43.5 L 245 42.5 L 245 30.5 L 243.5 29 L 179.5 29 L 178 30.5 L 127.5 119 L 76 29 L 12.5 29 Q 11.3 29.3 12 35.5 L 11 36.5 L 11 47.5 L 10 48.5 L 10 59.5 L 9 60.5 L 9 71.5 L 8 72.5 L 8 83.5 L 7 84.5 L 7 96.5 L 6 97.5 L 6 108.5 L 5 109.5 L 5 120.5 L 4 121.5 L 4 132.5 L 3 133.5 L 3 145.5 L 2 146.5 L 0.5 170 L 0 0 Z " /><path fill="rgb(0,0,0)" stroke="rgb(0,0,0)" stroke-width="1" opacity="0" d="M 215.5 84 Q 218.5 83.1 217 87.5 L 172 221 L 256 178 L 256 255.5 L 255.5 256 L 0 256 L 0 179.5 L 1.5 179 L 79 219 L 47 106.5 L 48 103 L 50.5 103 L 56 108.5 L 127 233 Q 129.7 234.1 129 231.5 L 213.5 85 L 215.5 84 Z " /><path fill="rgb(184,64,231)" stroke="rgb(184,64,231)" stroke-width="1" opacity="0.9921568627450981" d="M 13.5 29 L 14.5 30 L 72.5 30 Q 73.8 27.8 75 30.5 L 74.5 49 Q 70.1 45.9 61.5 47 L 60.5 48 L 47.5 49 L 40 51.5 L 40.5 53 L 13 30.5 L 13.5 29 Z " /><path fill="rgb(184,64,231)" stroke="rgb(184,64,231)" stroke-width="1" opacity="0.9921568627450981" d="M 180.5 29 L 181.5 30 L 241.5 30 Q 242.8 27.8 244 30.5 L 218 55.5 L 219 53.5 L 206.5 49 L 185 48 L 184.5 50 L 180 34.5 L 180.5 29 Z " /><path fill="rgb(184,64,231)" stroke="rgb(184,64,231)" stroke-width="1" opacity="0.9921568627450981" d="M 229.5 70 L 226 74.5 L 217.5 85 L 217 83 L 210 88.5 L 137 218 L 130.5 218 L 129.5 217 L 127.5 218 L 118 216 L 61 115.5 L 51.5 103 L 48.5 102 L 46.5 106 L 30 77.5 L 32 78.5 L 37.5 88 L 43 83.5 L 41 80.5 L 43 81.5 L 126.5 210 Q 128.8 210.8 128 208.5 L 216.5 73 L 218.5 76 L 222.5 77 L 229.5 70 Z " /><path fill="rgb(184,64,231)" stroke="rgb(184,64,231)" stroke-width="1" opacity="0.9921568627450981" d="M 218.5 96 L 219 97.5 L 213 113.5 L 205.5 126 L 205 124.5 L 214 99 L 218 97.5 L 218.5 96 Z " /><path fill="rgb(105,11,143)" stroke="rgb(105,11,143)" stroke-width="1" opacity="0.9921568627450981" d="M 170.5 57 L 171 59.5 L 126.5 208 L 106 139.5 L 97 104.5 L 98 104.5 Q 97.3 107.1 100 106 L 104 97 L 106 97 Q 104.5 93.2 107.5 94 L 111 91.5 L 127.5 119 L 161.5 61 L 163.5 61 Q 169.6 62.3 169 59.5 L 170.5 57 Z " /><path fill="rgb(105,11,143)" stroke="rgb(105,11,143)" stroke-width="1" opacity="0.9921568627450981" d="M 240.5 60 L 237 64.5 L 230 75 L 228 74.5 L 240.5 60 Z " /><path fill="rgb(105,11,143)" stroke="rgb(105,11,143)" stroke-width="1" opacity="0.9921568627450981" d="M 20.5 64 L 21.5 66 L 20.5 64 Z " /><path fill="rgb(105,11,143)" stroke="rgb(105,11,143)" stroke-width="1" opacity="0.9921568627450981" d="M 22.5 67 L 45 104.5 L 43 103.5 L 25 73.5 L 22.5 67 Z " /><path fill="rgb(105,11,143)" stroke="rgb(105,11,143)" stroke-width="1" opacity="0.9921568627450981" d="M 36.5 154 L 71 191.5 L 78 217.5 L 76.5 217 L 44 201 L 43 198.5 L 43 194.5 L 40 161.5 L 41 160.5 L 38 157.5 L 36.5 154 Z " /><path fill="rgb(105,11,143)" stroke="rgb(105,11,143)" stroke-width="1" opacity="0.9921568627450981" d="M 208.5 168 L 206 171.5 L 205 173.5 L 205 203.5 L 203.5 205 L 173.5 221 L 173 218.5 L 180 198.5 L 208.5 168 Z " /><path fill="rgb(164,39,215)" stroke="rgb(164,39,215)" stroke-width="1" opacity="0.2980392156862745" d="M 12.5 29 L 13 31.5 L 12 31.5 L 12.5 29 Z " /><path fill="rgb(164,39,215)" stroke="rgb(164,39,215)" stroke-width="1" opacity="0.2980392156862745" d="M 14.5 29 L 73 29.5 L 14.5 30 L 14.5 29 Z " /><path fill="rgb(164,39,215)" stroke="rgb(164,39,215)" stroke-width="1" opacity="0.2980392156862745" d="M 74.5 29 Q 76.8 28.3 76 30.5 L 76.5 32 L 74.5 29 Z " /><path fill="rgb(164,39,215)" stroke="rgb(164,39,215)" stroke-width="1" opacity="0.2980392156862745" d="M 179.5 29 L 179 30.5 L 177.5 33 L 178 31.5 L 179.5 29 Z " /><path fill="rgb(164,39,215)" stroke="rgb(164,39,215)" stroke-width="1" opacity="0.2980392156862745" d="M 181.5 29 L 242 29.5 L 181.5 30 L 181.5 29 Z " /><path fill="rgb(164,39,215)" stroke="rgb(164,39,215)" stroke-width="1" opacity="0.2980392156862745" d="M 243.5 29 L 245 30.5 L 245 38.5 L 244 38.5 Q 244.7 31 243.5 29 Z " /><path fill="rgb(164,39,215)" stroke="rgb(164,39,215)" stroke-width="1" opacity="0.2980392156862745" d="M 78.5 35 L 81 38.5 L 79 37.5 L 78.5 35 Z " /><path fill="rgb(164,39,215)" stroke="rgb(164,39,215)" stroke-width="1" opacity="0.2980392156862745" d="M 11.5 36 L 12 43.5 L 11 43.5 L 11.5 36 Z " /><path fill="rgb(164,39,215)" stroke="rgb(164,39,215)" stroke-width="1" opacity="0.2980392156862745" d="M 175.5 36 L 175 37.5 L 173.5 40 L 174 38.5 L 175.5 36 Z " /><path fill="rgb(164,39,215)" stroke="rgb(164,39,215)" stroke-width="1" opacity="0.2980392156862745" d="M 81.5 40 L 85 45.5 L 83 44.5 L 81.5 40 Z " /><path fill="rgb(164,39,215)" stroke="rgb(164,39,215)" stroke-width="1" opacity="0.2980392156862745" d="M 171.5 43 L 170.5 45 L 171.5 43 Z " /><path fill="rgb(164,39,215)" stroke="rgb(164,39,215)" stroke-width="1" opacity="0.2980392156862745" d="M 245.5 43 L 246 51.5 L 245 51.5 L 245.5 43 Z " /><path fill="rgb(164,39,215)" stroke="rgb(164,39,215)" stroke-width="1" opacity="0.2980392156862745" d="M 85.5 47 L 88 50.5 L 86 49.5 L 85.5 47 Z " /><path fill="rgb(164,39,215)" stroke="rgb(164,39,215)" stroke-width="1" opacity="0.2980392156862745" d="M 10.5 48 L 11 55.5 L 10 55.5 L 10.5 48 Z " /><path fill="rgb(164,39,215)" stroke="rgb(164,39,215)" stroke-width="1" opacity="0.2980392156862745" d="M 167.5 50 L 166.5 52 L 167.5 50 Z " /><path fill="rgb(164,39,215)" stroke="rgb(164,39,215)" stroke-width="1" opacity="0.2980392156862745" d="M 89.5 54 L 92 57.5 L 90 56.5 L 89.5 54 Z " /><path fill="rgb(164,39,215)" stroke="rgb(164,39,215)" stroke-width="1" opacity="0.2980392156862745" d="M 164.5 55 L 164 56.5 L 162.5 59 L 163 57.5 L 164.5 55 Z " /><path fill="rgb(164,39,215)" stroke="rgb(164,39,215)" stroke-width="1" opacity="0.2980392156862745" d="M 246.5 56 L 247 63.5 L 246 63.5 L 246.5 56 Z " /><path fill="rgb(164,39,215)" stroke="rgb(164,39,215)" stroke-width="1" opacity="0.2980392156862745" d="M 9.5 60 L 10 67.5 L 9 67.5 L 9.5 60 Z " /><path fill="rgb(164,39,215)" stroke="rgb(164,39,215)" stroke-width="1" opacity="0.2980392156862745" d="M 93.5 61 L 94.5 63 L 93.5 61 Z " /><path fill="rgb(164,39,215)" stroke="rgb(164,39,215)" stroke-width="1" opacity="0.2980392156862745" d="M 160.5 62 L 159.5 64 L 160.5 62 Z " /><path fill="rgb(164,39,215)" stroke="rgb(164,39,215)" stroke-width="1" opacity="0.2980392156862745" d="M 96.5 66 L 99 69.5 L 97 68.5 L 96.5 66 Z " /><path fill="rgb(164,39,215)" stroke="rgb(164,39,215)" stroke-width="1" opacity="0.2980392156862745" d="M 156.5 69 L 155.5 71 L 156.5 69 Z " /><path fill="rgb(164,39,215)" stroke="rgb(164,39,215)" stroke-width="1" opacity="0.2980392156862745" d="M 247.5 69 L 248 76.5 L 247 76.5 L 247.5 69 Z " /><path fill="rgb(164,39,215)" stroke="rgb(164,39,215)" stroke-width="1" opacity="0.2980392156862745" d="M 8.5 72 L 9 79.5 L 8 79.5 L 8.5 72 Z " /><path fill="rgb(164,39,215)" stroke="rgb(164,39,215)" stroke-width="1" opacity="0.2980392156862745" d="M 100.5 73 L 103 76.5 L 101 75.5 L 100.5 73 Z " /><path fill="rgb(164,39,215)" stroke="rgb(164,39,215)" stroke-width="1" opacity="0.2980392156862745" d="M 104.5 80 L 105.5 82 L 104.5 80 Z " /><path fill="rgb(164,39,215)" stroke="rgb(164,39,215)" stroke-width="1" opacity="0.2980392156862745" d="M 149.5 81 L 148.5 83 L 149.5 81 Z " /><path fill="rgb(164,39,215)" stroke="rgb(164,39,215)" stroke-width="1" opacity="0.2980392156862745" d="M 248.5 82 L 249 89.5 L 248 89.5 L 248.5 82 Z " /><path fill="rgb(164,39,215)" stroke="rgb(164,39,215)" stroke-width="1" opacity="0.2980392156862745" d="M 215.5 83 L 217 83.5 L 214.5 85 L 215.5 83 Z " /><path fill="rgb(164,39,215)" stroke="rgb(164,39,215)" stroke-width="1" opacity="0.2980392156862745" d="M 7.5 84 L 8 92.5 L 7 92.5 L 7.5 84 Z " /><path fill="rgb(164,39,215)" stroke="rgb(164,39,215)" stroke-width="1" opacity="0.2980392156862745" d="M 108.5 87 L 109.5 89 L 108.5 87 Z " /><path fill="rgb(164,39,215)" stroke="rgb(164,39,215)" stroke-width="1" opacity="0.2980392156862745" d="M 211.5 87 L 211 88.5 L 209.5 91 L 210 89.5 L 211.5 87 Z " /><path fill="rgb(164,39,215)" stroke="rgb(164,39,215)" stroke-width="1" opacity="0.2980392156862745" d="M 216.5 88 L 217 90.5 L 216 90.5 L 216.5 88 Z " /><path fill="rgb(164,39,215)" stroke="rgb(164,39,215)" stroke-width="1" opacity="0.2980392156862745" d="M 111.5 92 L 112.5 94 L 111.5 92 Z " /><path fill="rgb(164,39,215)" stroke="rgb(164,39,215)" stroke-width="1" opacity="0.2980392156862745" d="M 215.5 92 L 216 94.5 L 215 94.5 L 215.5 92 Z " /><path fill="rgb(164,39,215)" stroke="rgb(164,39,215)" stroke-width="1" opacity="0.2980392156862745" d="M 249.5 95 L 250 102.5 L 249 102.5 L 249.5 95 Z " /><path fill="rgb(164,39,215)" stroke="rgb(164,39,215)" stroke-width="1" opacity="0.2980392156862745" d="M 206.5 96 L 205.5 98 L 206.5 96 Z " /><path fill="rgb(164,39,215)" stroke="rgb(164,39,215)" stroke-width="1" opacity="0.2980392156862745" d="M 6.5 97 L 7 104.5 L 6 104.5 L 6.5 97 Z " /><path fill="rgb(164,39,215)" stroke="rgb(164,39,215)" stroke-width="1" opacity="0.2980392156862745" d="M 115.5 99 L 116.5 101 L 115.5 99 Z " /><path fill="rgb(164,39,215)" stroke="rgb(164,39,215)" stroke-width="1" opacity="0.2980392156862745" d="M 203.5 101 L 203 102.5 L 201.5 105 L 202 103.5 L 203.5 101 Z " /><path fill="rgb(164,39,215)" stroke="rgb(164,39,215)" stroke-width="1" opacity="0.2980392156862745" d="M 48.5 102 L 50 102.5 L 48 103 L 47.5 106 L 47 103.5 L 48.5 102 Z " /><path fill="rgb(164,39,215)" stroke="rgb(164,39,215)" stroke-width="1" opacity="0.2980392156862745" d="M 51.5 103 L 55.5 108 L 51.5 103 Z " /><path fill="rgb(164,39,215)" stroke="rgb(164,39,215)" stroke-width="1" opacity="0.2980392156862745" d="M 211.5 105 L 212 106.5 L 208.5 115 L 208 113.5 L 211.5 105 Z " /><path fill="rgb(164,39,215)" stroke="rgb(164,39,215)" stroke-width="1" opacity="0.2980392156862745" d="M 199.5 108 L 199 109.5 L 197.5 112 L 198 110.5 L 199.5 108 Z " /><path fill="rgb(164,39,215)" stroke="rgb(164,39,215)" stroke-width="1" opacity="0.2980392156862745" d="M 250.5 108 L 251 115.5 L 250 115.5 L 250.5 108 Z " /><path fill="rgb(164,39,215)" stroke="rgb(164,39,215)" stroke-width="1" opacity="0.2980392156862745" d="M 5.5 109 L 6 116.5 L 5 116.5 L 5.5 109 Z " /><path fill="rgb(164,39,215)" stroke="rgb(164,39,215)" stroke-width="1" opacity="0.2980392156862745" d="M 56.5 109 L 57.5 111 L 56.5 109 Z " /><path fill="rgb(164,39,215)" stroke="rgb(164,39,215)" stroke-width="1" opacity="0.2980392156862745" d="M 59.5 114 L 60.5 116 L 59.5 114 Z " /><path fill="rgb(164,39,215)" stroke="rgb(164,39,215)" stroke-width="1" opacity="0.2980392156862745" d="M 195.5 115 L 195 116.5 L 193.5 119 L 194 117.5 L 195.5 115 Z " /><path fill="rgb(164,39,215)" stroke="rgb(164,39,215)" stroke-width="1" opacity="0.2980392156862745" d="M 251.5 120 L 252 128.5 L 251 128.5 L 251.5 120 Z " /><path fill="rgb(164,39,215)" stroke="rgb(164,39,215)" stroke-width="1" opacity="0.2980392156862745" d="M 4.5 121 L 5 128.5 L 4 128.5 L 4.5 121 Z " /><path fill="rgb(164,39,215)" stroke="rgb(164,39,215)" stroke-width="1" opacity="0.2980392156862745" d="M 63.5 121 L 64.5 123 L 63.5 121 Z " /><path fill="rgb(164,39,215)" stroke="rgb(164,39,215)" stroke-width="1" opacity="0.2980392156862745" d="M 191.5 122 L 191 123.5 L 189.5 126 L 190 124.5 L 191.5 122 Z " /><path fill="rgb(164,39,215)" stroke="rgb(164,39,215)" stroke-width="1" opacity="0.2980392156862745" d="M 66.5 126 L 69 129.5 L 67 128.5 L 66.5 126 Z " /><path fill="rgb(164,39,215)" stroke="rgb(164,39,215)" stroke-width="1" opacity="0.2980392156862745" d="M 187.5 129 L 187 130.5 L 185.5 133 L 186 131.5 L 187.5 129 Z " /><path fill="rgb(164,39,215)" stroke="rgb(164,39,215)" stroke-width="1" opacity="0.2980392156862745" d="M 3.5 133 L 4 140.5 L 3 140.5 L 3.5 133 Z " /><path fill="rgb(164,39,215)" stroke="rgb(164,39,215)" stroke-width="1" opacity="0.2980392156862745" d="M 70.5 133 L 73 136.5 L 71 135.5 L 70.5 133 Z " /><path fill="rgb(164,39,215)" stroke="rgb(164,39,215)" stroke-width="1" opacity="0.2980392156862745" d="M 252.5 133 L 253 141.5 L 252 141.5 L 252.5 133 Z " /><path fill="rgb(164,39,215)" stroke="rgb(164,39,215)" stroke-width="1" opacity="0.2980392156862745" d="M 55.5 136 L 56 138.5 L 55 138.5 L 55.5 136 Z " /><path fill="rgb(164,39,215)" stroke="rgb(164,39,215)" stroke-width="1" opacity="0.2980392156862745" d="M 183.5 136 L 183 137.5 L 181.5 140 L 182 138.5 L 183.5 136 Z " /><path fill="rgb(164,39,215)" stroke="rgb(164,39,215)" stroke-width="1" opacity="0.2980392156862745" d="M 74.5 140 L 75.5 142 L 74.5 140 Z " /><path fill="rgb(164,39,215)" stroke="rgb(164,39,215)" stroke-width="1" opacity="0.2980392156862745" d="M 57.5 143 L 58 145.5 L 57 145.5 L 57.5 143 Z " /><path fill="rgb(164,39,215)" stroke="rgb(164,39,215)" stroke-width="1" opacity="0.2980392156862745" d="M 179.5 143 L 178.5 145 L 179.5 143 Z " /><path fill="rgb(164,39,215)" stroke="rgb(164,39,215)" stroke-width="1" opacity="0.2980392156862745" d="M 2.5 146 L 3 152.5 L 2 152.5 L 2.5 146 Z " /><path fill="rgb(164,39,215)" stroke="rgb(164,39,215)" stroke-width="1" opacity="0.2980392156862745" d="M 253.5 146 L 254 153.5 L 253 153.5 L 253.5 146 Z " /><path fill="rgb(164,39,215)" stroke="rgb(164,39,215)" stroke-width="1" opacity="0.2980392156862745" d="M 78.5 147 L 79.5 149 L 78.5 147 Z " /><path fill="rgb(164,39,215)" stroke="rgb(164,39,215)" stroke-width="1" opacity="0.2980392156862745" d="M 59.5 150 L 60 152.5 L 59 152.5 L 59.5 150 Z " /><path fill="rgb(164,39,215)" stroke="rgb(164,39,215)" stroke-width="1" opacity="0.2980392156862745" d="M 175.5 150 L 174.5 152 L 175.5 150 Z " /><path fill="rgb(164,39,215)" stroke="rgb(164,39,215)" stroke-width="1" opacity="0.2980392156862745" d="M 82.5 154 L 83.5 156 L 82.5 154 Z " /><path fill="rgb(164,39,215)" stroke="rgb(164,39,215)" stroke-width="1" opacity="0.2980392156862745" d="M 61.5 157 L 62 159.5 L 61 159.5 L 61.5 157 Z " /><path fill="rgb(164,39,215)" stroke="rgb(164,39,215)" stroke-width="1" opacity="0.2980392156862745" d="M 171.5 157 L 170.5 159 L 171.5 157 Z " /><path fill="rgb(164,39,215)" stroke="rgb(164,39,215)" stroke-width="1" opacity="0.2980392156862745" d="M 1.5 158 L 2 165.5 L 1 165.5 L 1.5 158 Z " /><path fill="rgb(164,39,215)" stroke="rgb(164,39,215)" stroke-width="1" opacity="0.2980392156862745" d="M 254.5 159 L 255 166.5 L 254 166.5 L 254.5 159 Z " /><path fill="rgb(164,39,215)" stroke="rgb(164,39,215)" stroke-width="1" opacity="0.2980392156862745" d="M 86.5 161 L 87.5 163 L 86.5 161 Z " /><path fill="rgb(164,39,215)" stroke="rgb(164,39,215)" stroke-width="1" opacity="0.2980392156862745" d="M 167.5 164 L 166.5 166 L 167.5 164 Z " /><path fill="rgb(164,39,215)" stroke="rgb(164,39,215)" stroke-width="1" opacity="0.2980392156862745" d="M 89.5 166 L 92 169.5 L 90 168.5 L 89.5 166 Z " /><path fill="rgb(164,39,215)" stroke="rgb(164,39,215)" stroke-width="1" opacity="0.2980392156862745" d="M 0.5 170 L 1 177.5 L 3 179.5 L 1.5 179 L 0 178.5 L 0.5 170 Z " /><path fill="rgb(164,39,215)" stroke="rgb(164,39,215)" stroke-width="1" opacity="0.2980392156862745" d="M 255.5 170 L 256 177.5 L 255 177.5 L 255.5 170 Z " /><path fill="rgb(164,39,215)" stroke="rgb(164,39,215)" stroke-width="1" opacity="0.2980392156862745" d="M 163.5 171 L 162.5 173 L 163.5 171 Z " /><path fill="rgb(164,39,215)" stroke="rgb(164,39,215)" stroke-width="1" opacity="0.2980392156862745" d="M 93.5 173 L 96 176.5 L 94 175.5 L 93.5 173 Z " /><path fill="rgb(164,39,215)" stroke="rgb(164,39,215)" stroke-width="1" opacity="0.2980392156862745" d="M 159.5 178 L 158.5 180 L 159.5 178 Z " /><path fill="rgb(164,39,215)" stroke="rgb(164,39,215)" stroke-width="1" opacity="0.2980392156862745" d="M 253.5 178 L 252.5 180 L 248.5 182 L 249.5 180 L 253.5 178 Z " /><path fill="rgb(164,39,215)" stroke="rgb(164,39,215)" stroke-width="1" opacity="0.2980392156862745" d="M 97.5 180 L 98.5 182 L 97.5 180 Z " /><path fill="rgb(164,39,215)" stroke="rgb(164,39,215)" stroke-width="1" opacity="0.2980392156862745" d="M 68.5 181 L 69 183.5 L 68 183.5 L 68.5 181 Z " /><path fill="rgb(164,39,215)" stroke="rgb(164,39,215)" stroke-width="1" opacity="0.2980392156862745" d="M 155.5 185 L 154.5 187 L 155.5 185 Z " /><path fill="rgb(164,39,215)" stroke="rgb(164,39,215)" stroke-width="1" opacity="0.2980392156862745" d="M 101.5 187 L 102.5 189 L 101.5 187 Z " /><path fill="rgb(164,39,215)" stroke="rgb(164,39,215)" stroke-width="1" opacity="0.2980392156862745" d="M 70.5 188 L 71 190.5 L 70 190.5 L 70.5 188 Z " /><path fill="rgb(164,39,215)" stroke="rgb(164,39,215)" stroke-width="1" opacity="0.2980392156862745" d="M 232.5 189 L 231.5 191 L 225.5 194 L 226.5 192 L 232.5 189 Z " /><path fill="rgb(164,39,215)" stroke="rgb(164,39,215)" stroke-width="1" opacity="0.2980392156862745" d="M 104.5 192 L 107 195.5 L 105 194.5 L 104.5 192 Z " /><path fill="rgb(164,39,215)" stroke="rgb(164,39,215)" stroke-width="1" opacity="0.2980392156862745" d="M 151.5 192 L 150.5 194 L 151.5 192 Z " /><path fill="rgb(164,39,215)" stroke="rgb(164,39,215)" stroke-width="1" opacity="0.2980392156862745" d="M 30.5 193 L 36 196.5 L 34.5 196 Q 30.5 195.5 30.5 193 Z " /><path fill="rgb(164,39,215)" stroke="rgb(164,39,215)" stroke-width="1" opacity="0.2980392156862745" d="M 148.5 197 L 148 198.5 L 146.5 201 L 147 199.5 L 148.5 197 Z " /><path fill="rgb(164,39,215)" stroke="rgb(164,39,215)" stroke-width="1" opacity="0.2980392156862745" d="M 108.5 199 L 111 202.5 L 109 201.5 L 108.5 199 Z " /><path fill="rgb(164,39,215)" stroke="rgb(164,39,215)" stroke-width="1" opacity="0.2980392156862745" d="M 211.5 200 L 210.5 202 L 208.5 203 L 209.5 201 L 211.5 200 Z " /><path fill="rgb(164,39,215)" stroke="rgb(164,39,215)" stroke-width="1" opacity="0.2980392156862745" d="M 144.5 204 L 144 205.5 L 142.5 208 L 143 206.5 L 144.5 204 Z " /><path fill="rgb(164,39,215)" stroke="rgb(164,39,215)" stroke-width="1" opacity="0.2980392156862745" d="M 112.5 206 L 115 209.5 L 113 208.5 L 112.5 206 Z " /><path fill="rgb(164,39,215)" stroke="rgb(164,39,215)" stroke-width="1" opacity="0.2980392156862745" d="M 140.5 211 L 140 212.5 L 138.5 215 L 139 213.5 L 140.5 211 Z " /><path fill="rgb(164,39,215)" stroke="rgb(164,39,215)" stroke-width="1" opacity="0.2980392156862745" d="M 116.5 213 L 119 216.5 L 117 215.5 L 116.5 213 Z " /><path fill="rgb(164,39,215)" stroke="rgb(164,39,215)" stroke-width="1" opacity="0.2980392156862745" d="M 78.5 216 L 79 219 L 76 217.5 L 78 217.5 L 78.5 216 Z " /><path fill="rgb(164,39,215)" stroke="rgb(164,39,215)" stroke-width="1" opacity="0.2980392156862745" d="M 119.5 218 L 122 221.5 L 120 220.5 L 119.5 218 Z " /><path fill="rgb(164,39,215)" stroke="rgb(164,39,215)" stroke-width="1" opacity="0.2980392156862745" d="M 136.5 218 L 136 219.5 L 134.5 222 L 135 220.5 L 136.5 218 Z " /><path fill="rgb(164,39,215)" stroke="rgb(164,39,215)" stroke-width="1" opacity="0.2980392156862745" d="M 123.5 225 L 126 228.5 L 124 227.5 L 123.5 225 Z " /><path fill="rgb(164,39,215)" stroke="rgb(164,39,215)" stroke-width="1" opacity="0.2980392156862745" d="M 132.5 225 L 132 226.5 L 130.5 229 L 131 227.5 L 132.5 225 Z " /><path fill="rgb(147,16,198)" stroke="rgb(147,16,198)" stroke-width="1" opacity="0.9921568627450981" d="M 178.5 32 L 179 34.5 L 172.5 55 L 171 54.5 L 172 58.5 L 171 58.5 L 170.5 57 L 169 61 L 162.5 62 L 162 59.5 L 178.5 32 Z " /><path fill="rgb(147,16,198)" stroke="rgb(147,16,198)" stroke-width="1" opacity="0.9921568627450981" d="M 80.5 44 L 81.5 47 L 85 46 L 110 89.5 L 110 91.5 L 106 94 L 106 97 Q 103.3 95.9 104 98.5 L 100 106 Q 97.3 107.1 98 104.5 L 97 104.5 L 96.5 106 L 81 51.5 L 80.5 44 Z " /><path fill="rgb(147,16,198)" stroke="rgb(147,16,198)" stroke-width="1" opacity="0.9921568627450981" d="M 11.5 47 L 22 64.5 L 21.5 66 L 24 67.5 L 23 69.5 L 25 69.5 L 24 71.5 L 27 72.5 L 25 72.5 L 26.5 75 L 28 74.5 L 27 76.5 L 30 77.5 L 28 77.5 L 30.5 82 Q 31.7 79.8 33 82.5 L 31 82.5 L 33.5 87 Q 34.8 84.7 36 87.5 L 34 87.5 L 36.5 92 Q 37.8 89.8 39 92.5 L 37 92.5 L 39.5 97 Q 40.8 94.8 42 97.5 L 43 99.5 L 41 99.5 L 42.5 102 Q 43.8 99.8 45 102.5 L 57 143.5 L 56 144.5 L 57.5 147 L 9 90.5 Q 6.7 87.3 8 80.5 L 9 79.5 L 9 68.5 L 10 67.5 L 10 56.5 L 11 55.5 L 11.5 47 Z " /><path fill="rgb(147,16,198)" stroke="rgb(147,16,198)" stroke-width="1" opacity="0.9921568627450981" d="M 245.5 53 L 248 83.5 L 206.5 131 L 206 128.5 L 207 125.5 Q 207.8 119.3 212 116.5 L 218 98.5 L 216.5 99 L 214 98.5 L 218 84.5 L 228.5 73 L 228.5 75 Q 230.8 75.8 230 73.5 L 232 70.5 L 230 70.5 L 234.5 66 Q 235.8 68.3 237 65.5 L 236 63.5 L 245.5 53 Z " /><path fill="rgb(147,16,198)" stroke="rgb(147,16,198)" stroke-width="1" opacity="0.9921568627450981" d="M 169.5 63 L 170 65.5 L 169 65.5 L 169.5 63 Z " /><path fill="rgb(147,16,198)" stroke="rgb(147,16,198)" stroke-width="1" opacity="0.9921568627450981" d="M 167.5 70 L 168 72.5 L 167 72.5 L 167.5 70 Z " /><path fill="rgb(147,16,198)" stroke="rgb(147,16,198)" stroke-width="1" opacity="0.9921568627450981" d="M 97.5 107 L 98 109.5 L 97 109.5 L 97.5 107 Z " /><path fill="rgb(147,16,198)" stroke="rgb(147,16,198)" stroke-width="1" opacity="0.9921568627450981" d="M 99.5 114 L 100 116.5 L 99 116.5 L 99.5 114 Z " /><path fill="rgb(147,16,198)" stroke="rgb(147,16,198)" stroke-width="1" opacity="0.9921568627450981" d="M 20.5 136 L 39 155.5 L 38 157.5 L 41 160.5 L 40 161.5 Q 42.3 166.3 41 174.5 L 42 175.5 L 42 187.5 L 44 195.5 L 43.5 200 L 23 190 L 24 184.5 L 23 182.5 L 24 179.5 L 23 171.5 L 24 169.5 L 23 166.5 L 24 163.5 L 23 162.5 Q 24.7 149.8 22 141.5 Q 24.5 140 21 138.5 L 20.5 136 Z " /><path fill="rgb(147,16,198)" stroke="rgb(147,16,198)" stroke-width="1" opacity="0.9921568627450981" d="M 223.5 151 L 223 152.5 L 222 157.5 L 222 159.5 L 222 176.5 L 225 194 L 205.5 204 L 205 173.5 L 206 171.5 L 201 174.5 L 223.5 151 Z " /><path fill="rgb(147,16,198)" stroke="rgb(147,16,198)" stroke-width="1" opacity="0.9921568627450981" d="M 42.5 160 L 47.5 166 L 42.5 160 Z " /><path fill="rgb(147,16,198)" stroke="rgb(147,16,198)" stroke-width="1" opacity="0.9921568627450981" d="M 53.5 172 L 56.5 176 L 53.5 172 Z " /><path fill="rgb(147,16,198)" stroke="rgb(147,16,198)" stroke-width="1" opacity="0.9921568627450981" d="M 195.5 181 L 190.5 187 L 195.5 181 Z " /><path fill="rgb(147,16,198)" stroke="rgb(147,16,198)" stroke-width="1" opacity="0.9921568627450981" d="M 62.5 182 L 64.5 185 L 62.5 182 Z " /><path fill="rgb(147,16,198)" stroke="rgb(147,16,198)" stroke-width="1" opacity="0.9921568627450981" d="M 183.5 194 L 181.5 197 L 183.5 194 Z " /><path fill="rgb(147,16,198)" stroke="rgb(147,16,198)" stroke-width="1" opacity="0.9921568627450981" d="M 125.5 206 L 127 208.5 L 125 207.5 L 125.5 206 Z " /><path fill="rgb(168,19,227)" stroke="rgb(168,19,227)" stroke-width="1" opacity="0.996078431372549" d="M 12.5 32 L 13 37.5 L 12 37.5 L 12.5 32 Z " /><path fill="rgb(168,19,227)" stroke="rgb(168,19,227)" stroke-width="1" opacity="0.996078431372549" d="M 244.5 39 L 245 44.5 L 244 44.5 L 244.5 39 Z " /><path fill="rgb(168,19,227)" stroke="rgb(168,19,227)" stroke-width="1" opacity="0.996078431372549" d="M 11.5 44 L 12 46.5 L 11 46.5 L 11.5 44 Z " /><path fill="rgb(168,19,227)" stroke="rgb(168,19,227)" stroke-width="1" opacity="0.996078431372549" d="M 248.5 90 L 249 95.5 L 248 95.5 L 248.5 90 Z " /><path fill="rgb(168,19,227)" stroke="rgb(168,19,227)" stroke-width="1" opacity="0.996078431372549" d="M 7.5 93 L 8 97.5 L 7 97.5 L 7.5 93 Z " /><path fill="rgb(168,19,227)" stroke="rgb(168,19,227)" stroke-width="1" opacity="0.996078431372549" d="M 249.5 103 L 250 108.5 L 249 108.5 L 249.5 103 Z " /><path fill="rgb(168,19,227)" stroke="rgb(168,19,227)" stroke-width="1" opacity="0.996078431372549" d="M 6.5 105 L 7 110.5 L 6 110.5 L 6.5 105 Z " /><path fill="rgb(168,19,227)" stroke="rgb(168,19,227)" stroke-width="1" opacity="0.996078431372549" d="M 250.5 116 L 251 121.5 L 250 121.5 L 250.5 116 Z " /><path fill="rgb(168,19,227)" stroke="rgb(168,19,227)" stroke-width="1" opacity="0.996078431372549" d="M 5.5 117 L 6 122.5 L 5 122.5 L 5.5 117 Z " /><path fill="rgb(168,19,227)" stroke="rgb(168,19,227)" stroke-width="1" opacity="0.996078431372549" d="M 4.5 129 L 5 134.5 L 4 134.5 L 4.5 129 Z " /><path fill="rgb(168,19,227)" stroke="rgb(168,19,227)" stroke-width="1" opacity="0.996078431372549" d="M 251.5 129 L 252 134.5 L 251 134.5 L 251.5 129 Z " /><path fill="rgb(168,19,227)" stroke="rgb(168,19,227)" stroke-width="1" opacity="0.996078431372549" d="M 3.5 141 L 4 146.5 L 3 146.5 L 3.5 141 Z " /><path fill="rgb(168,19,227)" stroke="rgb(168,19,227)" stroke-width="1" opacity="0.996078431372549" d="M 252.5 142 L 253 147.5 L 252 147.5 L 252.5 142 Z " /><path fill="rgb(168,19,227)" stroke="rgb(168,19,227)" stroke-width="1" opacity="0.996078431372549" d="M 2.5 153 L 3 158.5 L 2 158.5 L 2.5 153 Z " /><path fill="rgb(168,19,227)" stroke="rgb(168,19,227)" stroke-width="1" opacity="0.996078431372549" d="M 253.5 154 L 254 160.5 L 253 160.5 L 253.5 154 Z " /><path fill="rgb(168,19,227)" stroke="rgb(168,19,227)" stroke-width="1" opacity="0.996078431372549" d="M 1.5 166 L 2 171.5 L 1 171.5 L 1.5 166 Z " /><path fill="rgb(168,19,227)" stroke="rgb(168,19,227)" stroke-width="1" opacity="0.996078431372549" d="M 254.5 167 L 255 173.5 L 254 173.5 L 254.5 167 Z " /><path fill="rgb(168,19,227)" stroke="rgb(168,19,227)" stroke-width="1" opacity="1" d="M 13.5 31 L 39.5 52 L 52.5 48 L 69.5 47 L 74.5 49 L 75.5 31 L 84 45.5 L 81 47.5 L 81 51.5 L 86 66.5 L 88 77.5 L 125 205.5 L 122 203.5 Q 84.3 141.7 43.5 83 L 36.5 89 L 37 87.5 L 35.5 85 L 34 85.5 L 35 83.5 L 33 83.5 L 34 81.5 L 31 80.5 L 32 78.5 L 30 78.5 L 30.5 77 L 28 75.5 L 27 73.5 L 27.5 72 L 25 70.5 L 12 48.5 L 12 38.5 L 13.5 31 Z M 81 44 L 80 47 L 81 47 L 81 44 Z " /><path fill="rgb(168,19,227)" stroke="rgb(168,19,227)" stroke-width="1" opacity="1" d="M 179.5 31 L 184.5 50 L 185 48 L 206.5 49 L 219 53.5 L 219.5 55 L 242.5 32 L 244 33.5 L 245 53.5 L 230.5 70 L 229 70.5 L 230 71.5 L 226.5 75 L 225.5 74 L 222.5 77 L 221.5 76 Q 217.8 76.8 217 74.5 L 216.5 73 Q 170.1 140 128 210 L 125 208.5 L 127 208.5 L 179.5 31 Z " /><path fill="rgb(168,19,227)" stroke="rgb(168,19,227)" stroke-width="1" opacity="1" d="M 223.5 78 L 221.5 81 L 223.5 78 Z " /><path fill="rgb(168,19,227)" stroke="rgb(168,19,227)" stroke-width="1" opacity="1" d="M 247.5 84 L 255 176.5 L 225.5 193 L 224 191.5 L 223 177.5 L 222 176.5 L 222 159.5 L 222 157.5 L 223 152.5 L 214 160.5 L 182.5 195 L 183 193.5 L 203 131.5 L 206.5 124 L 207 125.5 L 206 128.5 L 206.5 131 L 247.5 84 Z " /><path fill="rgb(168,19,227)" stroke="rgb(168,19,227)" stroke-width="1" opacity="1" d="M 8.5 89 L 55.5 145 L 57 144.5 Q 54.5 146 58 147.5 L 70 189.5 L 65 185.5 L 21.5 137 L 21 138.5 Q 24.5 140 22 141.5 L 24 165.5 L 23 168.5 L 24 170.5 L 23 172.5 Q 25.5 174 24 179.5 L 23 182.5 L 24 185.5 L 22.5 189 L 1 177.5 L 8.5 89 Z " /><path fill="rgb(168,19,227)" stroke="rgb(168,19,227)" stroke-width="1" opacity="1" d="M 119.5 216 L 128.5 218 L 130.5 218 L 136 218.5 L 129 231 Q 126.3 232.1 127 229.5 L 119.5 216 Z " /></svg>