<svg xmlns="http://www.w3.org/2000/svg" width="660" height="380" viewBox="0 0 660 380" shape-rendering="geometricPrecision">
<path fill="rgb(19,16,17)" fill-rule="evenodd" d="M 116.0 235.0 L 121.0 237.0 L 123.0 240.0 L 117.0 242.0 L 119.0 244.0 L 117.0 246.0 L 113.0 245.0 L 112.0 249.0 L 114.0 251.0 L 116.0 250.0 L 117.0 252.0 L 123.0 252.0 L 127.0 255.0 L 126.0 257.0 L 128.0 257.0 L 127.0 259.0 L 131.0 274.0 L 130.0 276.0 L 131.0 275.0 L 136.0 282.0 L 144.0 285.0 L 142.0 287.0 L 137.0 287.0 L 149.0 286.0 L 155.0 281.0 L 155.0 255.0 L 153.0 251.0 Z M 83.0 203.0 L 150.0 232.0 L 158.0 239.0 L 157.0 240.0 L 163.0 248.0 L 162.0 250.0 L 159.0 250.0 L 161.0 254.0 L 160.0 284.0 L 147.0 292.0 L 108.0 291.0 L 102.0 284.0 L 101.0 256.0 L 98.0 258.0 L 101.0 260.0 L 100.0 264.0 L 99.0 261.0 L 96.0 261.0 L 95.0 264.0 L 93.0 263.0 L 90.0 266.0 L 91.0 283.0 L 94.0 290.0 L 99.0 295.0 L 106.0 298.0 L 126.0 300.0 L 148.0 299.0 L 160.0 293.0 L 166.0 284.0 L 168.0 274.0 L 167.0 254.0 L 162.0 242.0 L 154.0 234.0 L 143.0 228.0 Z M 551.0 80.0 L 546.0 78.0 L 501.0 79.0 L 497.0 81.0 L 490.0 90.0 L 489.0 110.0 L 487.0 112.0 L 446.0 112.0 L 440.0 115.0 L 437.0 119.0 L 437.0 238.0 L 427.0 253.0 L 427.0 270.0 L 427.0 254.0 L 431.0 246.0 L 436.0 248.0 L 430.0 260.0 L 438.0 246.0 L 453.0 231.0 L 541.0 158.0 L 555.0 143.0 L 560.0 130.0 L 560.0 92.0 L 556.0 84.0 Z M 502.0 89.0 L 503.0 119.0 L 499.0 124.0 L 451.0 125.0 L 451.0 212.0 L 450.0 225.0 L 448.0 228.0 L 446.0 217.0 L 446.0 123.0 L 448.0 120.0 L 497.0 120.0 L 498.0 94.0 Z M 505.0 87.0 L 512.0 85.0 L 545.0 85.0 L 549.0 86.0 L 553.0 92.0 L 551.0 94.0 L 550.0 91.0 L 545.0 89.0 L 507.0 89.0 Z M 95.0 86.0 L 91.0 93.0 L 89.0 103.0 L 90.0 133.0 L 95.0 145.0 L 101.0 151.0 L 117.0 160.0 L 198.0 193.0 L 210.0 202.0 L 211.0 201.0 L 207.0 197.0 L 208.0 195.0 L 215.0 199.0 L 213.0 200.0 L 220.0 200.0 L 222.0 202.0 L 222.0 112.0 L 170.0 113.0 L 168.0 111.0 L 168.0 95.0 L 165.0 88.0 L 159.0 82.0 L 149.0 78.0 L 110.0 78.0 Z M 111.0 155.0 L 113.0 154.0 L 121.0 158.0 L 123.0 157.0 L 163.0 176.0 L 161.0 177.0 L 112.0 157.0 Z M 103.0 97.0 L 105.0 95.0 L 107.0 96.0 L 107.0 129.0 L 107.0 116.0 L 109.0 114.0 L 111.0 115.0 L 111.0 113.0 L 114.0 115.0 L 115.0 114.0 L 116.0 116.0 L 118.0 113.0 L 120.0 115.0 L 122.0 109.0 L 124.0 108.0 L 126.0 110.0 L 124.0 113.0 L 127.0 117.0 L 127.0 123.0 L 129.0 124.0 L 128.0 131.0 L 130.0 138.0 L 131.0 137.0 L 132.0 140.0 L 135.0 141.0 L 132.0 142.0 L 134.0 144.0 L 139.0 144.0 L 140.0 141.0 L 142.0 143.0 L 141.0 144.0 L 145.0 146.0 L 143.0 148.0 L 146.0 146.0 L 143.0 142.0 L 148.0 140.0 L 151.0 145.0 L 154.0 146.0 L 151.0 147.0 L 154.0 148.0 L 154.0 150.0 L 156.0 148.0 L 157.0 151.0 L 160.0 148.0 L 164.0 151.0 L 167.0 149.0 L 169.0 151.0 L 171.0 146.0 L 172.0 148.0 L 174.0 147.0 L 177.0 149.0 L 172.0 156.0 L 175.0 152.0 L 177.0 157.0 L 177.0 155.0 L 179.0 155.0 L 179.0 157.0 L 181.0 155.0 L 183.0 159.0 L 186.0 157.0 L 190.0 159.0 L 192.0 157.0 L 192.0 160.0 L 197.0 162.0 L 197.0 166.0 L 198.0 165.0 L 199.0 167.0 L 198.0 165.0 L 200.0 164.0 L 201.0 168.0 L 204.0 168.0 L 204.0 172.0 L 207.0 169.0 L 209.0 174.0 L 215.0 175.0 L 216.0 191.0 L 212.0 192.0 L 211.0 190.0 L 210.0 192.0 L 209.0 188.0 L 208.0 190.0 L 200.0 188.0 L 111.0 147.0 L 106.0 142.0 L 102.0 133.0 Z M 112.0 90.0 L 116.0 85.0 L 153.0 85.0 L 160.0 88.0 L 163.0 98.0 L 165.0 97.0 L 166.0 101.0 L 168.0 102.0 L 168.0 114.0 L 166.0 115.0 L 167.0 119.0 L 215.0 119.0 L 215.0 115.0 L 219.0 114.0 L 221.0 116.0 L 219.0 118.0 L 221.0 121.0 L 214.0 125.0 L 162.0 125.0 L 158.0 122.0 L 158.0 96.0 L 154.0 91.0 L 149.0 89.0 Z M 132.0 83.0 L 136.0 79.0 L 144.0 80.0 L 143.0 84.0 Z M 305.0 78.0 L 295.0 84.0 L 291.0 95.0 L 291.0 281.0 L 297.0 293.0 L 306.0 298.0 L 351.0 299.0 L 361.0 295.0 L 366.0 290.0 L 369.0 282.0 L 369.0 93.0 L 365.0 83.0 L 356.0 78.0 Z M 307.0 89.0 L 309.0 90.0 L 307.0 96.0 L 307.0 229.0 L 308.0 108.0 L 309.0 107.0 L 311.0 109.0 L 311.0 114.0 L 310.0 113.0 L 312.0 111.0 L 316.0 112.0 L 318.0 110.0 L 323.0 110.0 L 323.0 107.0 L 326.0 107.0 L 326.0 109.0 L 328.0 108.0 L 328.0 110.0 L 330.0 108.0 L 333.0 113.0 L 332.0 112.0 L 334.0 110.0 L 336.0 112.0 L 335.0 115.0 L 338.0 118.0 L 336.0 119.0 L 338.0 122.0 L 336.0 127.0 L 338.0 125.0 L 341.0 129.0 L 340.0 130.0 L 343.0 130.0 L 345.0 128.0 L 342.0 130.0 L 342.0 128.0 L 339.0 127.0 L 341.0 125.0 L 343.0 126.0 L 341.0 125.0 L 344.0 122.0 L 348.0 129.0 L 346.0 130.0 L 350.0 134.0 L 346.0 136.0 L 349.0 138.0 L 346.0 140.0 L 350.0 142.0 L 348.0 143.0 L 352.0 144.0 L 350.0 145.0 L 352.0 146.0 L 352.0 155.0 L 350.0 157.0 L 350.0 159.0 L 352.0 159.0 L 352.0 168.0 L 350.0 169.0 L 352.0 170.0 L 353.0 187.0 L 351.0 189.0 L 353.0 189.0 L 352.0 194.0 L 354.0 195.0 L 350.0 200.0 L 352.0 202.0 L 352.0 216.0 L 350.0 217.0 L 352.0 219.0 L 349.0 221.0 L 352.0 221.0 L 352.0 224.0 L 350.0 225.0 L 352.0 226.0 L 350.0 230.0 L 352.0 230.0 L 352.0 240.0 L 350.0 241.0 L 352.0 242.0 L 352.0 251.0 L 349.0 251.0 L 351.0 252.0 L 350.0 254.0 L 349.0 253.0 L 352.0 256.0 L 349.0 258.0 L 348.0 257.0 L 348.0 259.0 L 349.0 258.0 L 351.0 260.0 L 348.0 263.0 L 349.0 266.0 L 346.0 267.0 L 350.0 270.0 L 346.0 270.0 L 349.0 272.0 L 348.0 275.0 L 349.0 274.0 L 351.0 276.0 L 348.0 277.0 L 349.0 280.0 L 346.0 287.0 L 343.0 285.0 L 342.0 287.0 L 336.0 287.0 L 350.0 287.0 L 353.0 290.0 L 349.0 292.0 L 314.0 292.0 L 307.0 288.0 L 303.0 283.0 L 303.0 97.0 Z M 312.0 85.0 L 357.0 85.0 L 363.0 90.0 L 365.0 95.0 L 365.0 266.0 L 363.0 272.0 L 359.0 267.0 L 361.0 266.0 L 359.0 263.0 L 358.0 92.0 L 354.0 89.0 L 309.0 90.0 L 308.0 87.0 Z"/>
<path fill="rgb(37,24,25)" fill-rule="evenodd" d="M 233.0 289.0 L 233.0 311.0 L 239.0 322.0 L 249.0 335.0 L 262.0 341.0 L 264.0 345.0 L 268.0 347.0 L 267.0 349.0 L 272.0 350.0 L 380.0 351.0 L 392.0 349.0 L 393.0 351.0 L 410.0 344.0 L 423.0 332.0 L 424.0 351.0 L 541.0 351.0 L 549.0 348.0 L 552.0 351.0 L 559.0 349.0 L 572.0 349.0 L 570.0 347.0 L 575.0 346.0 L 576.0 351.0 L 583.0 351.0 L 587.0 348.0 L 589.0 350.0 L 592.0 347.0 L 595.0 349.0 L 592.0 347.0 L 593.0 345.0 L 598.0 345.0 L 600.0 347.0 L 597.0 349.0 L 607.0 348.0 L 609.0 350.0 L 615.0 349.0 L 617.0 345.0 L 618.0 347.0 L 619.0 346.0 L 615.0 343.0 L 615.0 320.0 L 614.0 344.0 L 430.0 344.0 L 428.0 342.0 L 429.0 326.0 L 430.0 331.0 L 430.0 305.0 L 427.0 298.0 L 427.0 271.0 L 427.0 304.0 L 421.0 317.0 L 422.0 318.0 L 411.0 331.0 L 410.0 330.0 L 407.0 334.0 L 406.0 333.0 L 406.0 335.0 L 403.0 335.0 L 397.0 340.0 L 395.0 339.0 L 394.0 341.0 L 389.0 341.0 L 388.0 343.0 L 385.0 342.0 L 385.0 344.0 L 376.0 343.0 L 376.0 345.0 L 272.0 344.0 L 252.0 335.0 L 242.0 325.0 L 235.0 313.0 L 233.0 304.0 Z M 100.0 263.0 L 100.0 260.0 L 97.0 258.0 L 100.0 256.0 L 96.0 256.0 L 95.0 258.0 L 63.0 258.0 L 84.0 258.0 L 88.0 260.0 L 77.0 261.0 L 75.0 264.0 L 89.0 266.0 L 91.0 263.0 L 95.0 263.0 L 96.0 260.0 L 99.0 260.0 Z M 433.0 245.0 L 432.0 247.0 L 430.0 246.0 L 431.0 245.0 L 431.0 249.0 L 428.0 254.0 L 429.0 263.0 L 431.0 260.0 L 430.0 257.0 L 432.0 257.0 L 431.0 255.0 L 433.0 255.0 L 432.0 252.0 L 435.0 248.0 Z M 126.0 225.0 L 125.0 226.0 L 129.0 230.0 L 155.0 245.0 L 159.0 255.0 L 158.0 259.0 L 153.0 250.0 L 156.0 255.0 L 156.0 281.0 L 147.0 288.0 L 136.0 287.0 L 144.0 284.0 L 136.0 283.0 L 134.0 279.0 L 133.0 280.0 L 132.0 277.0 L 129.0 276.0 L 130.0 274.0 L 126.0 255.0 L 119.0 252.0 L 117.0 253.0 L 116.0 251.0 L 114.0 252.0 L 111.0 249.0 L 111.0 246.0 L 113.0 244.0 L 117.0 245.0 L 118.0 244.0 L 116.0 242.0 L 122.0 240.0 L 122.0 237.0 L 119.0 240.0 L 105.0 241.0 L 106.0 262.0 L 106.0 255.0 L 108.0 255.0 L 107.0 284.0 L 113.0 288.0 L 149.0 288.0 L 150.0 289.0 L 147.0 291.0 L 144.0 291.0 L 147.0 291.0 L 159.0 284.0 L 160.0 254.0 L 158.0 250.0 L 160.0 248.0 L 163.0 250.0 L 153.0 235.0 L 141.0 229.0 L 141.0 227.0 L 138.0 228.0 L 135.0 226.0 L 136.0 227.0 L 134.0 228.0 Z M 205.0 215.0 L 208.0 223.0 L 208.0 310.0 L 205.0 319.0 L 208.0 310.0 L 209.0 231.0 L 208.0 222.0 Z M 226.0 209.0 L 228.0 214.0 L 228.0 311.0 L 229.0 232.0 L 228.0 213.0 Z M 608.0 179.0 L 591.0 197.0 L 540.0 240.0 L 519.0 260.0 L 518.0 259.0 L 504.0 273.0 L 502.0 273.0 L 496.0 281.0 L 496.0 284.0 L 494.0 284.0 L 496.0 288.0 L 494.0 295.0 L 501.0 295.0 L 502.0 293.0 L 519.0 293.0 L 499.0 292.0 L 499.0 290.0 L 508.0 281.0 L 505.0 284.0 L 503.0 283.0 L 503.0 274.0 L 582.0 206.0 L 604.0 185.0 Z M 108.0 114.0 L 107.0 132.0 L 111.0 142.0 L 115.0 146.0 L 111.0 146.0 L 107.0 142.0 L 119.0 150.0 L 155.0 165.0 L 205.0 189.0 L 208.0 189.0 L 209.0 187.0 L 210.0 191.0 L 211.0 189.0 L 212.0 191.0 L 215.0 191.0 L 214.0 175.0 L 209.0 175.0 L 207.0 171.0 L 209.0 168.0 L 212.0 170.0 L 209.0 168.0 L 206.0 171.0 L 205.0 170.0 L 206.0 171.0 L 204.0 173.0 L 203.0 168.0 L 201.0 169.0 L 200.0 165.0 L 198.0 166.0 L 195.0 161.0 L 198.0 160.0 L 192.0 161.0 L 192.0 158.0 L 190.0 160.0 L 186.0 158.0 L 183.0 160.0 L 181.0 156.0 L 177.0 156.0 L 174.0 152.0 L 176.0 149.0 L 172.0 149.0 L 171.0 147.0 L 171.0 150.0 L 168.0 152.0 L 167.0 150.0 L 169.0 149.0 L 169.0 146.0 L 163.0 146.0 L 165.0 148.0 L 164.0 149.0 L 168.0 149.0 L 164.0 152.0 L 160.0 149.0 L 157.0 152.0 L 155.0 148.0 L 152.0 149.0 L 150.0 147.0 L 153.0 146.0 L 151.0 146.0 L 148.0 141.0 L 145.0 141.0 L 143.0 145.0 L 139.0 141.0 L 134.0 145.0 L 131.0 142.0 L 135.0 140.0 L 132.0 141.0 L 131.0 138.0 L 129.0 138.0 L 127.0 131.0 L 128.0 124.0 L 126.0 123.0 L 126.0 117.0 L 123.0 113.0 L 126.0 109.0 L 123.0 109.0 L 120.0 116.0 L 118.0 115.0 L 118.0 112.0 L 114.0 116.0 L 112.0 114.0 Z M 309.0 108.0 L 309.0 193.0 L 306.0 280.0 L 308.0 285.0 L 312.0 288.0 L 343.0 290.0 L 328.0 291.0 L 349.0 291.0 L 352.0 289.0 L 335.0 287.0 L 342.0 286.0 L 343.0 284.0 L 346.0 286.0 L 346.0 282.0 L 348.0 280.0 L 349.0 281.0 L 347.0 277.0 L 350.0 276.0 L 347.0 275.0 L 348.0 272.0 L 345.0 270.0 L 349.0 270.0 L 347.0 263.0 L 350.0 260.0 L 348.0 260.0 L 347.0 257.0 L 351.0 256.0 L 349.0 254.0 L 351.0 251.0 L 351.0 242.0 L 349.0 241.0 L 351.0 240.0 L 351.0 226.0 L 349.0 225.0 L 351.0 224.0 L 351.0 218.0 L 349.0 217.0 L 351.0 216.0 L 351.0 202.0 L 349.0 200.0 L 351.0 200.0 L 351.0 196.0 L 353.0 195.0 L 351.0 194.0 L 352.0 178.0 L 351.0 170.0 L 349.0 169.0 L 351.0 168.0 L 351.0 159.0 L 349.0 157.0 L 351.0 155.0 L 351.0 146.0 L 350.0 147.0 L 349.0 145.0 L 351.0 144.0 L 347.0 143.0 L 349.0 142.0 L 347.0 141.0 L 349.0 140.0 L 349.0 137.0 L 345.0 137.0 L 349.0 134.0 L 345.0 130.0 L 347.0 129.0 L 344.0 123.0 L 339.0 128.0 L 336.0 124.0 L 337.0 122.0 L 340.0 124.0 L 339.0 122.0 L 338.0 123.0 L 335.0 121.0 L 336.0 118.0 L 338.0 119.0 L 334.0 115.0 L 334.0 111.0 L 331.0 112.0 L 330.0 109.0 L 328.0 111.0 L 328.0 109.0 L 323.0 108.0 L 323.0 111.0 L 316.0 111.0 L 310.0 114.0 Z M 503.0 89.0 L 499.0 94.0 L 499.0 119.0 L 497.0 121.0 L 448.0 121.0 L 447.0 123.0 L 448.0 227.0 L 450.0 212.0 L 450.0 125.0 L 452.0 123.0 L 499.0 123.0 L 502.0 119.0 L 501.0 93.0 Z M 506.0 87.0 L 534.0 89.0 L 545.0 88.0 L 550.0 90.0 L 552.0 94.0 L 551.0 89.0 L 545.0 86.0 Z M 312.0 86.0 L 309.0 87.0 L 304.0 97.0 L 304.0 128.0 L 304.0 102.0 L 306.0 102.0 L 306.0 119.0 L 306.0 96.0 L 309.0 89.0 L 354.0 88.0 L 359.0 92.0 L 360.0 263.0 L 362.0 266.0 L 360.0 267.0 L 363.0 271.0 L 364.0 95.0 L 362.0 90.0 L 357.0 86.0 Z M 152.0 86.0 L 155.0 87.0 L 161.0 94.0 L 162.0 119.0 L 164.0 121.0 L 212.0 120.0 L 214.0 122.0 L 212.0 124.0 L 162.0 124.0 L 159.0 121.0 L 159.0 117.0 L 159.0 122.0 L 162.0 124.0 L 214.0 124.0 L 220.0 121.0 L 218.0 118.0 L 220.0 117.0 L 219.0 115.0 L 216.0 115.0 L 217.0 118.0 L 215.0 120.0 L 167.0 120.0 L 165.0 115.0 L 167.0 114.0 L 167.0 102.0 L 165.0 101.0 L 165.0 98.0 L 162.0 98.0 L 159.0 88.0 Z"/>
<path fill="rgb(150,8,11)" fill-rule="evenodd" d="M 623.0 298.0 L 620.0 298.0 L 615.0 303.0 L 616.0 343.0 L 620.0 345.0 L 618.0 348.0 L 617.0 346.0 L 615.0 350.0 L 597.0 350.0 L 596.0 349.0 L 599.0 347.0 L 593.0 346.0 L 592.0 348.0 L 590.0 346.0 L 591.0 347.0 L 588.0 350.0 L 584.0 349.0 L 585.0 350.0 L 583.0 352.0 L 576.0 352.0 L 575.0 347.0 L 571.0 347.0 L 573.0 349.0 L 572.0 350.0 L 559.0 350.0 L 552.0 352.0 L 549.0 349.0 L 541.0 352.0 L 426.0 352.0 L 624.0 353.0 Z M 494.0 298.0 L 497.0 300.0 L 507.0 301.0 L 609.0 301.0 L 613.0 300.0 L 616.0 294.0 L 625.0 294.0 L 501.0 292.0 L 500.0 290.0 L 500.0 292.0 L 520.0 293.0 L 508.0 295.0 L 502.0 294.0 L 501.0 296.0 L 494.0 296.0 Z M 240.0 225.0 L 240.0 303.0 L 244.0 316.0 L 252.0 327.0 L 246.0 319.0 L 241.0 305.0 L 241.0 293.0 L 243.0 291.0 L 240.0 291.0 L 242.0 288.0 L 240.0 286.0 L 240.0 282.0 L 243.0 275.0 L 240.0 273.0 L 241.0 271.0 L 242.0 272.0 L 240.0 264.0 Z M 567.0 136.0 L 564.0 144.0 L 560.0 149.0 L 558.0 147.0 L 554.0 151.0 L 556.0 153.0 L 552.0 157.0 L 551.0 154.0 L 545.0 160.0 L 545.0 163.0 L 543.0 162.0 L 531.0 170.0 L 525.0 177.0 L 484.0 210.0 L 470.0 224.0 L 458.0 232.0 L 442.0 247.0 L 437.0 249.0 L 438.0 248.0 L 439.0 250.0 L 435.0 252.0 L 435.0 256.0 L 433.0 256.0 L 431.0 262.0 L 429.0 264.0 L 428.0 263.0 L 428.0 298.0 L 431.0 305.0 L 431.0 325.0 L 438.0 308.0 L 439.0 256.0 L 442.0 256.0 L 441.0 260.0 L 448.0 247.0 L 550.0 160.0 L 563.0 146.0 Z M 427.0 135.0 L 427.0 250.0 L 429.0 247.0 L 428.0 245.0 L 432.0 243.0 L 430.0 245.0 L 429.0 244.0 L 431.0 236.0 L 431.0 182.0 L 429.0 180.0 L 429.0 176.0 L 431.0 175.0 L 431.0 165.0 L 429.0 164.0 L 431.0 161.0 L 429.0 160.0 L 430.0 157.0 L 428.0 156.0 L 430.0 153.0 L 430.0 145.0 L 428.0 145.0 Z M 231.0 56.0 L 228.0 74.0 L 228.0 109.0 L 230.0 112.0 L 228.0 117.0 L 227.0 115.0 L 224.0 120.0 L 226.0 120.0 L 226.0 204.0 L 225.0 205.0 L 223.0 202.0 L 223.0 204.0 L 229.0 213.0 L 229.0 312.0 L 231.0 319.0 L 230.0 321.0 L 234.0 330.0 L 246.0 343.0 L 260.0 350.0 L 269.0 352.0 L 386.0 352.0 L 399.0 348.0 L 380.0 352.0 L 272.0 351.0 L 267.0 350.0 L 267.0 347.0 L 264.0 346.0 L 262.0 342.0 L 249.0 336.0 L 249.0 334.0 L 247.0 334.0 L 238.0 322.0 L 232.0 311.0 L 233.0 256.0 L 231.0 253.0 L 233.0 249.0 L 233.0 240.0 L 231.0 239.0 L 231.0 234.0 L 233.0 234.0 L 233.0 237.0 L 233.0 224.0 L 231.0 224.0 L 231.0 217.0 L 233.0 216.0 L 233.0 77.0 L 236.0 65.0 L 241.0 57.0 L 238.0 57.0 L 239.0 54.0 L 233.0 56.0 L 232.0 58.0 Z M 602.0 49.0 L 609.0 57.0 L 616.0 77.0 L 616.0 157.0 L 613.0 169.0 L 607.0 179.0 L 608.0 181.0 L 603.0 184.0 L 604.0 183.0 L 605.0 185.0 L 601.0 189.0 L 600.0 188.0 L 601.0 189.0 L 594.0 196.0 L 592.0 195.0 L 594.0 193.0 L 587.0 202.0 L 585.0 201.0 L 588.0 198.0 L 583.0 203.0 L 584.0 204.0 L 582.0 207.0 L 577.0 210.0 L 576.0 209.0 L 578.0 207.0 L 569.0 218.0 L 563.0 222.0 L 562.0 221.0 L 565.0 218.0 L 557.0 228.0 L 555.0 227.0 L 558.0 224.0 L 551.0 233.0 L 549.0 232.0 L 551.0 230.0 L 548.0 233.0 L 549.0 234.0 L 542.0 240.0 L 541.0 239.0 L 544.0 236.0 L 541.0 239.0 L 542.0 240.0 L 534.0 247.0 L 533.0 246.0 L 537.0 242.0 L 526.0 255.0 L 504.0 274.0 L 504.0 283.0 L 506.0 284.0 L 502.0 288.0 L 522.0 269.0 L 534.0 261.0 L 605.0 199.0 L 619.0 181.0 L 623.0 171.0 L 625.0 159.0 L 623.0 76.0 L 620.0 65.0 L 612.0 57.0 L 612.0 55.0 L 610.0 56.0 Z M 417.0 50.0 L 422.0 56.0 L 426.0 65.0 L 427.0 76.0 L 431.0 69.0 L 432.0 71.0 L 434.0 70.0 L 433.0 59.0 L 424.0 49.0 Z"/>
<path fill="rgb(218,12,13)" fill-rule="evenodd" d="M 624.0 296.0 L 622.0 294.0 L 616.0 295.0 L 615.0 299.0 L 610.0 301.0 L 613.0 301.0 L 614.0 303.0 L 622.0 296.0 L 624.0 298.0 L 624.0 305.0 Z M 530.0 170.0 L 513.0 185.0 L 511.0 184.0 L 510.0 185.0 L 511.0 184.0 L 512.0 186.0 L 506.0 191.0 L 504.0 190.0 L 505.0 189.0 L 500.0 196.0 L 498.0 195.0 L 499.0 196.0 L 465.0 226.0 L 457.0 232.0 L 455.0 231.0 L 456.0 232.0 L 450.0 238.0 L 448.0 237.0 L 449.0 236.0 L 439.0 247.0 L 434.0 256.0 L 443.0 244.0 L 470.0 223.0 L 484.0 209.0 L 525.0 176.0 Z M 574.0 142.0 L 563.0 157.0 L 452.0 253.0 L 447.0 262.0 L 447.0 277.0 L 443.0 280.0 L 442.0 305.0 L 435.0 325.0 L 435.0 340.0 L 609.0 339.0 L 609.0 307.0 L 486.0 306.0 L 489.0 294.0 L 489.0 280.0 L 496.0 271.0 L 522.0 249.0 L 522.0 246.0 L 526.0 246.0 L 527.0 243.0 L 526.0 241.0 L 527.0 243.0 L 523.0 247.0 L 523.0 242.0 L 520.0 245.0 L 520.0 248.0 L 519.0 247.0 L 517.0 250.0 L 511.0 251.0 L 508.0 255.0 L 506.0 253.0 L 507.0 250.0 L 508.0 251.0 L 507.0 250.0 L 503.0 254.0 L 504.0 253.0 L 505.0 255.0 L 502.0 259.0 L 500.0 257.0 L 498.0 259.0 L 495.0 256.0 L 495.0 258.0 L 497.0 258.0 L 495.0 261.0 L 491.0 254.0 L 493.0 251.0 L 491.0 254.0 L 490.0 253.0 L 491.0 257.0 L 489.0 258.0 L 487.0 255.0 L 487.0 246.0 L 486.0 247.0 L 483.0 243.0 L 485.0 241.0 L 487.0 244.0 L 490.0 240.0 L 487.0 240.0 L 488.0 235.0 L 492.0 235.0 L 494.0 237.0 L 492.0 233.0 L 491.0 235.0 L 489.0 234.0 L 491.0 231.0 L 494.0 231.0 L 495.0 234.0 L 496.0 233.0 L 494.0 228.0 L 498.0 221.0 L 501.0 221.0 L 504.0 225.0 L 502.0 222.0 L 503.0 220.0 L 502.0 222.0 L 500.0 219.0 L 505.0 216.0 L 503.0 214.0 L 505.0 214.0 L 509.0 208.0 L 511.0 209.0 L 514.0 206.0 L 516.0 207.0 L 514.0 206.0 L 522.0 201.0 L 518.0 201.0 L 519.0 197.0 L 529.0 191.0 L 533.0 185.0 L 536.0 187.0 L 537.0 183.0 L 543.0 183.0 L 543.0 176.0 L 553.0 170.0 L 552.0 168.0 L 556.0 167.0 L 554.0 166.0 L 556.0 164.0 L 559.0 167.0 L 559.0 162.0 L 562.0 159.0 L 565.0 159.0 L 565.0 156.0 Z M 579.0 127.0 L 575.0 140.0 L 579.0 127.0 L 571.0 125.0 L 568.0 121.0 L 568.0 124.0 L 564.0 128.0 L 560.0 142.0 L 532.0 169.0 L 543.0 161.0 L 545.0 162.0 L 547.0 160.0 L 545.0 162.0 L 544.0 160.0 L 551.0 153.0 L 552.0 156.0 L 555.0 153.0 L 553.0 151.0 L 558.0 146.0 L 561.0 149.0 L 560.0 150.0 L 560.0 147.0 L 563.0 144.0 L 564.0 145.0 L 563.0 143.0 L 565.0 143.0 L 564.0 141.0 L 567.0 135.0 L 568.0 137.0 L 571.0 126.0 Z M 225.0 120.0 L 223.0 121.0 L 225.0 204.0 Z M 471.0 45.0 L 479.0 43.0 L 575.0 43.0 L 510.0 42.0 L 478.0 43.0 Z M 263.0 48.0 L 248.0 59.0 L 240.0 76.0 L 239.0 298.0 L 240.0 224.0 L 242.0 262.0 L 241.0 273.0 L 244.0 275.0 L 243.0 280.0 L 241.0 280.0 L 241.0 286.0 L 243.0 288.0 L 241.0 291.0 L 244.0 291.0 L 242.0 293.0 L 243.0 315.0 L 244.0 313.0 L 246.0 316.0 L 245.0 318.0 L 244.0 317.0 L 245.0 319.0 L 249.0 321.0 L 248.0 323.0 L 247.0 322.0 L 251.0 324.0 L 250.0 326.0 L 249.0 325.0 L 254.0 330.0 L 268.0 337.0 L 276.0 337.0 L 276.0 339.0 L 376.0 339.0 L 376.0 337.0 L 384.0 338.0 L 393.0 335.0 L 404.0 329.0 L 412.0 322.0 L 421.0 302.0 L 421.0 175.0 L 421.0 205.0 L 419.0 208.0 L 418.0 205.0 L 416.0 209.0 L 413.0 207.0 L 414.0 208.0 L 411.0 212.0 L 410.0 211.0 L 410.0 213.0 L 407.0 212.0 L 411.0 214.0 L 409.0 221.0 L 407.0 220.0 L 403.0 224.0 L 406.0 226.0 L 403.0 227.0 L 401.0 225.0 L 404.0 220.0 L 401.0 220.0 L 401.0 213.0 L 399.0 216.0 L 395.0 217.0 L 396.0 218.0 L 399.0 216.0 L 402.0 219.0 L 399.0 222.0 L 400.0 224.0 L 396.0 227.0 L 389.0 224.0 L 389.0 222.0 L 388.0 225.0 L 391.0 224.0 L 392.0 226.0 L 385.0 226.0 L 385.0 229.0 L 386.0 227.0 L 390.0 227.0 L 391.0 229.0 L 387.0 229.0 L 385.0 233.0 L 383.0 232.0 L 382.0 227.0 L 385.0 223.0 L 381.0 226.0 L 380.0 224.0 L 376.0 224.0 L 378.0 225.0 L 376.0 228.0 L 379.0 228.0 L 376.0 230.0 L 381.0 232.0 L 379.0 233.0 L 378.0 238.0 L 377.0 233.0 L 375.0 232.0 L 375.0 252.0 L 379.0 254.0 L 378.0 286.0 L 372.0 298.0 L 367.0 303.0 L 356.0 307.0 L 313.0 308.0 L 304.0 307.0 L 294.0 302.0 L 289.0 297.0 L 286.0 288.0 L 286.0 290.0 L 284.0 290.0 L 283.0 284.0 L 285.0 281.0 L 284.0 256.0 L 286.0 251.0 L 285.0 118.0 L 285.0 160.0 L 283.0 161.0 L 285.0 162.0 L 284.0 169.0 L 281.0 167.0 L 284.0 170.0 L 283.0 171.0 L 281.0 170.0 L 275.0 172.0 L 274.0 170.0 L 276.0 166.0 L 271.0 171.0 L 269.0 170.0 L 274.0 171.0 L 275.0 174.0 L 271.0 174.0 L 268.0 179.0 L 264.0 174.0 L 264.0 179.0 L 267.0 178.0 L 268.0 180.0 L 262.0 184.0 L 260.0 177.0 L 261.0 173.0 L 259.0 171.0 L 263.0 168.0 L 263.0 165.0 L 267.0 165.0 L 267.0 163.0 L 261.0 163.0 L 263.0 157.0 L 262.0 159.0 L 256.0 159.0 L 255.0 157.0 L 253.0 161.0 L 250.0 160.0 L 252.0 157.0 L 247.0 161.0 L 250.0 164.0 L 248.0 166.0 L 246.0 163.0 L 243.0 163.0 L 244.0 160.0 L 240.0 159.0 L 242.0 157.0 L 240.0 155.0 L 244.0 152.0 L 240.0 149.0 L 240.0 111.0 L 242.0 111.0 L 240.0 109.0 L 240.0 80.0 L 245.0 63.0 L 255.0 53.0 L 268.0 46.0 L 282.0 43.0 L 387.0 43.0 L 280.0 43.0 Z M 590.0 41.0 L 605.0 53.0 L 609.0 53.0 L 611.0 56.0 L 611.0 54.0 L 613.0 55.0 L 613.0 57.0 L 621.0 65.0 L 623.0 75.0 L 621.0 63.0 L 614.0 51.0 L 603.0 42.0 Z M 550.0 36.0 L 495.0 36.0 L 479.0 33.0 L 460.0 34.0 L 451.0 38.0 L 440.0 47.0 L 439.0 46.0 L 432.0 56.0 L 430.0 51.0 L 414.0 40.0 L 409.0 42.0 L 401.0 40.0 L 412.0 46.0 L 419.0 53.0 L 416.0 50.0 L 424.0 48.0 L 434.0 59.0 L 435.0 70.0 L 433.0 72.0 L 431.0 70.0 L 431.0 73.0 L 427.0 77.0 L 427.0 134.0 L 429.0 136.0 L 429.0 145.0 L 431.0 145.0 L 429.0 148.0 L 431.0 148.0 L 431.0 153.0 L 429.0 156.0 L 431.0 157.0 L 430.0 160.0 L 432.0 161.0 L 430.0 164.0 L 432.0 165.0 L 432.0 175.0 L 430.0 176.0 L 430.0 180.0 L 432.0 182.0 L 432.0 236.0 L 429.0 246.0 L 431.0 241.0 L 433.0 241.0 L 432.0 239.0 L 435.0 238.0 L 433.0 238.0 L 433.0 124.0 L 431.0 112.0 L 428.0 110.0 L 429.0 108.0 L 427.0 108.0 L 427.0 105.0 L 431.0 102.0 L 427.0 102.0 L 428.0 88.0 L 436.0 82.0 L 435.0 72.0 L 437.0 70.0 L 435.0 65.0 L 437.0 64.0 L 438.0 67.0 L 438.0 62.0 L 440.0 62.0 L 443.0 56.0 L 453.0 46.0 L 469.0 38.0 L 478.0 36.0 Z M 232.0 57.0 L 237.0 53.0 L 240.0 54.0 L 240.0 57.0 L 254.0 45.0 L 267.0 39.0 L 281.0 36.0 L 365.0 36.0 L 312.0 36.0 L 295.0 33.0 L 288.0 34.0 L 282.0 32.0 L 271.0 32.0 L 248.0 39.0 L 232.0 54.0 Z"/>
<path fill="rgb(231,19,20)" fill-rule="evenodd" d="M 440.0 269.0 L 439.0 310.0 L 431.0 327.0 L 431.0 343.0 L 614.0 343.0 L 613.0 302.0 L 610.0 306.0 L 611.0 336.0 L 609.0 340.0 L 435.0 341.0 L 434.0 325.0 L 440.0 311.0 L 442.0 280.0 L 446.0 277.0 L 444.0 278.0 L 442.0 276.0 Z M 587.0 46.0 L 584.0 47.0 L 584.0 45.0 L 581.0 46.0 L 581.0 44.0 L 578.0 45.0 L 578.0 43.0 L 469.0 45.0 L 469.0 47.0 L 466.0 46.0 L 464.0 47.0 L 466.0 48.0 L 461.0 49.0 L 461.0 51.0 L 459.0 50.0 L 457.0 54.0 L 455.0 53.0 L 453.0 55.0 L 454.0 56.0 L 448.0 60.0 L 449.0 59.0 L 450.0 61.0 L 448.0 63.0 L 447.0 62.0 L 447.0 65.0 L 445.0 65.0 L 446.0 67.0 L 444.0 67.0 L 444.0 79.0 L 438.0 81.0 L 437.0 79.0 L 437.0 82.0 L 429.0 88.0 L 428.0 102.0 L 430.0 103.0 L 428.0 108.0 L 432.0 112.0 L 434.0 124.0 L 434.0 238.0 L 431.0 243.0 L 435.0 237.0 L 434.0 144.0 L 435.0 121.0 L 439.0 114.0 L 447.0 110.0 L 488.0 110.0 L 489.0 88.0 L 496.0 80.0 L 504.0 76.0 L 544.0 76.0 L 556.0 82.0 L 561.0 90.0 L 562.0 128.0 L 561.0 134.0 L 555.0 146.0 L 542.0 159.0 L 454.0 232.0 L 442.0 244.0 L 542.0 160.0 L 559.0 142.0 L 563.0 128.0 L 567.0 124.0 L 568.0 120.0 L 571.0 124.0 L 579.0 126.0 L 575.0 127.0 L 580.0 127.0 L 577.0 139.0 L 573.0 142.0 L 575.0 142.0 L 574.0 145.0 L 570.0 147.0 L 571.0 146.0 L 572.0 148.0 L 566.0 156.0 L 567.0 157.0 L 562.0 160.0 L 558.0 166.0 L 556.0 165.0 L 555.0 166.0 L 557.0 167.0 L 554.0 169.0 L 553.0 168.0 L 553.0 171.0 L 544.0 176.0 L 544.0 183.0 L 537.0 184.0 L 535.0 187.0 L 533.0 186.0 L 529.0 192.0 L 526.0 192.0 L 526.0 194.0 L 520.0 197.0 L 520.0 203.0 L 518.0 205.0 L 517.0 204.0 L 511.0 210.0 L 507.0 208.0 L 506.0 209.0 L 509.0 209.0 L 507.0 213.0 L 505.0 211.0 L 503.0 212.0 L 506.0 213.0 L 505.0 215.0 L 504.0 214.0 L 506.0 216.0 L 504.0 218.0 L 501.0 217.0 L 502.0 221.0 L 496.0 224.0 L 495.0 228.0 L 497.0 233.0 L 495.0 235.0 L 494.0 232.0 L 491.0 232.0 L 490.0 234.0 L 488.0 231.0 L 488.0 234.0 L 491.0 234.0 L 492.0 232.0 L 495.0 237.0 L 493.0 238.0 L 492.0 236.0 L 488.0 236.0 L 488.0 240.0 L 491.0 240.0 L 487.0 245.0 L 486.0 242.0 L 484.0 243.0 L 480.0 240.0 L 486.0 245.0 L 485.0 247.0 L 482.0 247.0 L 483.0 246.0 L 486.0 248.0 L 485.0 247.0 L 487.0 245.0 L 488.0 246.0 L 488.0 255.0 L 491.0 259.0 L 493.0 258.0 L 495.0 260.0 L 494.0 261.0 L 496.0 259.0 L 497.0 261.0 L 497.0 257.0 L 501.0 261.0 L 498.0 257.0 L 500.0 256.0 L 502.0 258.0 L 504.0 255.0 L 503.0 253.0 L 506.0 250.0 L 507.0 253.0 L 504.0 260.0 L 506.0 261.0 L 505.0 259.0 L 509.0 255.0 L 508.0 253.0 L 510.0 251.0 L 513.0 253.0 L 510.0 251.0 L 515.0 250.0 L 516.0 248.0 L 517.0 249.0 L 519.0 246.0 L 520.0 247.0 L 519.0 245.0 L 521.0 243.0 L 523.0 244.0 L 523.0 249.0 L 517.0 255.0 L 513.0 257.0 L 511.0 255.0 L 513.0 257.0 L 496.0 272.0 L 490.0 280.0 L 490.0 294.0 L 487.0 306.0 L 491.0 301.0 L 496.0 301.0 L 491.0 300.0 L 493.0 299.0 L 492.0 288.0 L 494.0 279.0 L 590.0 196.0 L 605.0 181.0 L 611.0 171.0 L 613.0 163.0 L 612.0 165.0 L 609.0 165.0 L 611.0 158.0 L 610.0 76.0 L 608.0 69.0 L 607.0 71.0 L 606.0 70.0 L 607.0 66.0 L 600.0 55.0 L 595.0 51.0 L 593.0 52.0 L 592.0 49.0 L 590.0 50.0 Z M 398.0 45.0 L 395.0 46.0 L 395.0 44.0 L 388.0 43.0 L 282.0 44.0 L 271.0 47.0 L 267.0 46.0 L 267.0 48.0 L 264.0 47.0 L 266.0 48.0 L 261.0 51.0 L 259.0 50.0 L 260.0 49.0 L 257.0 54.0 L 254.0 53.0 L 252.0 55.0 L 253.0 56.0 L 245.0 62.0 L 246.0 65.0 L 241.0 80.0 L 241.0 149.0 L 245.0 152.0 L 241.0 155.0 L 241.0 159.0 L 244.0 159.0 L 244.0 163.0 L 246.0 162.0 L 248.0 165.0 L 243.0 167.0 L 244.0 169.0 L 242.0 173.0 L 247.0 171.0 L 247.0 166.0 L 249.0 164.0 L 250.0 165.0 L 246.0 161.0 L 252.0 156.0 L 253.0 158.0 L 250.0 161.0 L 252.0 159.0 L 253.0 160.0 L 255.0 156.0 L 256.0 158.0 L 262.0 158.0 L 263.0 156.0 L 264.0 159.0 L 262.0 160.0 L 262.0 163.0 L 268.0 163.0 L 268.0 165.0 L 266.0 165.0 L 266.0 167.0 L 263.0 166.0 L 264.0 168.0 L 258.0 173.0 L 257.0 171.0 L 259.0 167.0 L 255.0 169.0 L 257.0 171.0 L 256.0 173.0 L 259.0 175.0 L 256.0 179.0 L 251.0 179.0 L 253.0 182.0 L 259.0 177.0 L 258.0 173.0 L 260.0 171.0 L 262.0 173.0 L 262.0 183.0 L 257.0 184.0 L 257.0 186.0 L 263.0 181.0 L 265.0 182.0 L 264.0 181.0 L 267.0 180.0 L 271.0 173.0 L 274.0 174.0 L 276.0 170.0 L 281.0 169.0 L 284.0 172.0 L 280.0 167.0 L 282.0 166.0 L 284.0 168.0 L 284.0 162.0 L 282.0 161.0 L 284.0 160.0 L 284.0 118.0 L 286.0 118.0 L 286.0 287.0 L 290.0 297.0 L 294.0 301.0 L 289.0 295.0 L 286.0 283.0 L 288.0 281.0 L 289.0 284.0 L 290.0 282.0 L 290.0 92.0 L 292.0 86.0 L 299.0 79.0 L 306.0 76.0 L 355.0 76.0 L 363.0 79.0 L 369.0 87.0 L 370.0 284.0 L 370.0 258.0 L 373.0 253.0 L 378.0 256.0 L 378.0 276.0 L 378.0 254.0 L 374.0 252.0 L 376.0 239.0 L 374.0 232.0 L 375.0 231.0 L 378.0 233.0 L 378.0 237.0 L 378.0 233.0 L 383.0 227.0 L 383.0 231.0 L 386.0 231.0 L 388.0 233.0 L 387.0 234.0 L 388.0 231.0 L 387.0 232.0 L 386.0 229.0 L 390.0 228.0 L 385.0 227.0 L 393.0 227.0 L 391.0 226.0 L 393.0 224.0 L 396.0 226.0 L 395.0 227.0 L 397.0 225.0 L 399.0 228.0 L 397.0 225.0 L 401.0 219.0 L 404.0 221.0 L 402.0 225.0 L 406.0 227.0 L 406.0 230.0 L 405.0 225.0 L 402.0 224.0 L 405.0 222.0 L 407.0 223.0 L 405.0 222.0 L 407.0 219.0 L 410.0 221.0 L 410.0 224.0 L 409.0 222.0 L 411.0 218.0 L 409.0 215.0 L 410.0 214.0 L 408.0 213.0 L 414.0 207.0 L 418.0 209.0 L 420.0 205.0 L 420.0 175.0 L 422.0 175.0 L 422.0 302.0 L 415.0 319.0 L 408.0 327.0 L 401.0 332.0 L 384.0 339.0 L 276.0 340.0 L 257.0 333.0 L 244.0 319.0 L 240.0 310.0 L 238.0 298.0 L 239.0 78.0 L 237.0 202.0 L 236.0 184.0 L 236.0 191.0 L 234.0 191.0 L 234.0 82.0 L 235.0 304.0 L 237.0 313.0 L 244.0 325.0 L 252.0 333.0 L 263.0 339.0 L 275.0 342.0 L 379.0 342.0 L 395.0 338.0 L 406.0 332.0 L 415.0 324.0 L 422.0 313.0 L 425.0 304.0 L 426.0 292.0 L 426.0 72.0 L 426.0 86.0 L 425.0 87.0 L 422.0 85.0 L 422.0 77.0 L 421.0 89.0 L 421.0 70.0 L 420.0 67.0 L 418.0 67.0 L 418.0 62.0 L 404.0 48.0 L 405.0 49.0 L 403.0 50.0 L 401.0 48.0 L 402.0 47.0 L 401.0 48.0 Z M 383.0 223.0 L 384.0 226.0 L 381.0 229.0 L 380.0 228.0 L 381.0 231.0 L 375.0 230.0 L 378.0 228.0 L 376.0 229.0 L 375.0 227.0 L 379.0 223.0 L 381.0 225.0 Z M 440.0 45.0 L 451.0 37.0 L 466.0 32.0 L 479.0 32.0 L 485.0 34.0 L 490.0 33.0 L 495.0 35.0 L 569.0 36.0 L 583.0 39.0 L 585.0 38.0 L 591.0 43.0 L 589.0 41.0 L 590.0 40.0 L 600.0 40.0 L 605.0 42.0 L 615.0 51.0 L 622.0 63.0 L 625.0 79.0 L 623.0 64.0 L 615.0 49.0 L 609.0 42.0 L 597.0 35.0 L 576.0 36.0 L 553.0 31.0 L 505.0 29.0 L 502.0 27.0 L 503.0 26.0 L 478.0 26.0 L 456.0 32.0 L 442.0 41.0 Z M 233.0 53.0 L 248.0 38.0 L 271.0 31.0 L 282.0 31.0 L 288.0 33.0 L 295.0 32.0 L 312.0 35.0 L 383.0 36.0 L 408.0 41.0 L 414.0 39.0 L 429.0 49.0 L 422.0 40.0 L 410.0 34.0 L 398.0 36.0 L 373.0 33.0 L 370.0 31.0 L 323.0 28.0 L 326.0 27.0 L 277.0 26.0 L 267.0 28.0 L 250.0 35.0 L 240.0 43.0 Z"/>
<path fill="rgb(105,89,88)" fill-rule="evenodd" d="M 10.0 281.0 L 10.0 316.0 L 14.0 333.0 L 22.0 348.0 L 33.0 360.0 L 55.0 373.0 L 80.0 379.0 L 176.0 379.0 L 202.0 373.0 L 226.0 358.0 L 236.0 364.0 L 228.0 358.0 L 224.0 358.0 L 216.0 364.0 L 215.0 362.0 L 223.0 356.0 L 221.0 356.0 L 201.0 368.0 L 198.0 367.0 L 189.0 371.0 L 177.0 373.0 L 68.0 373.0 L 81.0 376.0 L 138.0 375.0 L 168.0 376.0 L 168.0 378.0 L 77.0 378.0 L 57.0 373.0 L 38.0 363.0 L 20.0 344.0 L 14.0 332.0 L 10.0 316.0 Z M 177.0 269.0 L 174.0 270.0 L 173.0 268.0 L 173.0 282.0 L 167.0 296.0 L 169.0 295.0 L 170.0 297.0 L 164.0 303.0 L 174.0 295.0 L 174.0 292.0 L 176.0 292.0 L 175.0 290.0 L 177.0 290.0 L 177.0 282.0 L 179.0 282.0 L 179.0 271.0 Z M 106.0 263.0 L 107.0 287.0 L 106.0 288.0 L 104.0 286.0 L 107.0 289.0 L 108.0 288.0 L 111.0 291.0 L 143.0 291.0 L 149.0 289.0 L 111.0 288.0 L 109.0 285.0 L 110.0 284.0 L 106.0 284.0 Z M 18.0 259.0 L 18.0 313.0 L 24.0 335.0 L 34.0 349.0 L 45.0 358.0 L 58.0 365.0 L 76.0 370.0 L 182.0 370.0 L 208.0 360.0 L 226.0 346.0 L 235.0 354.0 L 253.0 364.0 L 250.0 365.0 L 238.0 359.0 L 232.0 358.0 L 247.0 368.0 L 245.0 369.0 L 238.0 365.0 L 237.0 366.0 L 238.0 365.0 L 239.0 367.0 L 240.0 366.0 L 241.0 368.0 L 242.0 367.0 L 243.0 369.0 L 244.0 368.0 L 245.0 370.0 L 246.0 369.0 L 247.0 371.0 L 255.0 374.0 L 263.0 373.0 L 264.0 374.0 L 262.0 376.0 L 265.0 375.0 L 266.0 377.0 L 271.0 375.0 L 271.0 378.0 L 279.0 377.0 L 283.0 379.0 L 377.0 379.0 L 392.0 377.0 L 402.0 373.0 L 404.0 379.0 L 659.0 379.0 L 659.0 272.0 L 658.0 379.0 L 653.0 378.0 L 657.0 377.0 L 656.0 340.0 L 653.0 348.0 L 653.0 371.0 L 652.0 372.0 L 650.0 370.0 L 650.0 284.0 L 649.0 371.0 L 414.0 371.0 L 412.0 369.0 L 412.0 358.0 L 404.0 364.0 L 382.0 370.0 L 276.0 370.0 L 254.0 364.0 L 241.0 358.0 L 226.0 346.0 L 209.0 359.0 L 185.0 369.0 L 99.0 371.0 L 72.0 369.0 L 54.0 363.0 L 38.0 352.0 L 29.0 342.0 L 22.0 329.0 L 19.0 318.0 Z M 76.0 233.0 L 48.0 222.0 L 75.0 234.0 L 22.0 247.0 L 18.0 250.0 L 18.0 255.0 L 18.0 250.0 L 20.0 248.0 L 71.0 236.0 Z M 79.0 136.0 L 79.0 142.0 L 80.0 141.0 L 80.0 144.0 L 82.0 144.0 L 81.0 146.0 L 83.0 146.0 L 83.0 149.0 L 84.0 148.0 L 86.0 151.0 L 85.0 152.0 L 92.0 159.0 L 95.0 159.0 L 95.0 161.0 L 96.0 160.0 L 97.0 162.0 L 98.0 161.0 L 102.0 165.0 L 108.0 166.0 L 111.0 169.0 L 151.0 185.0 L 152.0 184.0 L 153.0 186.0 L 155.0 185.0 L 158.0 188.0 L 160.0 187.0 L 160.0 189.0 L 162.0 188.0 L 168.0 192.0 L 170.0 191.0 L 170.0 193.0 L 175.0 193.0 L 175.0 195.0 L 181.0 195.0 L 184.0 197.0 L 183.0 198.0 L 185.0 197.0 L 185.0 199.0 L 188.0 198.0 L 188.0 200.0 L 190.0 199.0 L 194.0 202.0 L 193.0 203.0 L 195.0 202.0 L 201.0 208.0 L 200.0 209.0 L 197.0 206.0 L 204.0 211.0 L 204.0 215.0 L 206.0 215.0 L 205.0 217.0 L 207.0 217.0 L 209.0 222.0 L 210.0 231.0 L 209.0 310.0 L 208.0 311.0 L 207.0 308.0 L 208.0 314.0 L 207.0 315.0 L 206.0 313.0 L 207.0 317.0 L 205.0 320.0 L 204.0 319.0 L 205.0 322.0 L 201.0 324.0 L 202.0 323.0 L 203.0 325.0 L 190.0 337.0 L 177.0 342.0 L 83.0 343.0 L 68.0 339.0 L 68.0 337.0 L 65.0 338.0 L 56.0 331.0 L 57.0 330.0 L 50.0 325.0 L 51.0 323.0 L 48.0 322.0 L 48.0 318.0 L 46.0 318.0 L 47.0 315.0 L 45.0 315.0 L 45.0 309.0 L 43.0 309.0 L 44.0 302.0 L 43.0 304.0 L 42.0 303.0 L 43.0 271.0 L 41.0 266.0 L 79.0 265.0 L 74.0 264.0 L 77.0 260.0 L 89.0 259.0 L 32.0 258.0 L 31.0 311.0 L 37.0 327.0 L 31.0 306.0 L 31.0 260.0 L 33.0 258.0 L 35.0 260.0 L 35.0 306.0 L 38.0 318.0 L 49.0 335.0 L 64.0 345.0 L 77.0 349.0 L 89.0 350.0 L 169.0 350.0 L 192.0 344.0 L 201.0 338.0 L 208.0 330.0 L 212.0 323.0 L 211.0 320.0 L 213.0 320.0 L 212.0 316.0 L 213.0 315.0 L 214.0 317.0 L 214.0 310.0 L 215.0 313.0 L 215.0 227.0 L 214.0 229.0 L 214.0 220.0 L 213.0 223.0 L 207.0 210.0 L 208.0 208.0 L 206.0 208.0 L 199.0 201.0 L 200.0 200.0 L 198.0 201.0 L 196.0 199.0 L 197.0 198.0 L 193.0 198.0 L 193.0 196.0 L 191.0 197.0 L 191.0 195.0 L 188.0 195.0 L 189.0 194.0 L 187.0 195.0 L 186.0 193.0 L 138.0 174.0 L 157.0 183.0 L 151.0 184.0 L 121.0 172.0 L 117.0 168.0 L 118.0 167.0 L 128.0 170.0 L 101.0 158.0 L 90.0 149.0 L 91.0 148.0 L 87.0 145.0 L 87.0 141.0 L 85.0 141.0 L 84.0 137.0 L 81.0 135.0 Z M 305.0 102.0 L 304.0 281.0 L 305.0 284.0 L 313.0 290.0 L 342.0 290.0 L 312.0 289.0 L 307.0 285.0 L 305.0 280.0 Z M 119.0 87.0 L 151.0 88.0 L 155.0 90.0 L 160.0 98.0 L 159.0 116.0 L 162.0 123.0 L 213.0 122.0 L 164.0 122.0 L 161.0 119.0 L 161.0 97.0 L 155.0 88.0 L 151.0 86.0 Z M 66.0 34.0 L 53.0 41.0 L 40.0 53.0 L 31.0 73.0 L 30.0 158.0 L 34.0 178.0 L 41.0 190.0 L 58.0 204.0 L 108.0 226.0 L 110.0 224.0 L 113.0 226.0 L 111.0 227.0 L 115.0 229.0 L 118.0 228.0 L 118.0 230.0 L 121.0 229.0 L 125.0 232.0 L 124.0 233.0 L 127.0 232.0 L 128.0 233.0 L 126.0 234.0 L 151.0 245.0 L 158.0 258.0 L 154.0 245.0 L 146.0 240.0 L 148.0 239.0 L 144.0 236.0 L 147.0 239.0 L 143.0 240.0 L 139.0 237.0 L 141.0 236.0 L 139.0 237.0 L 132.0 233.0 L 124.0 226.0 L 126.0 224.0 L 135.0 227.0 L 62.0 195.0 L 60.0 193.0 L 61.0 192.0 L 59.0 193.0 L 52.0 187.0 L 53.0 186.0 L 47.0 182.0 L 48.0 180.0 L 47.0 181.0 L 41.0 170.0 L 42.0 165.0 L 41.0 167.0 L 40.0 166.0 L 41.0 156.0 L 39.0 148.0 L 41.0 69.0 L 43.0 68.0 L 43.0 63.0 L 45.0 63.0 L 44.0 61.0 L 46.0 61.0 L 45.0 59.0 L 48.0 58.0 L 47.0 59.0 L 46.0 57.0 L 49.0 54.0 L 50.0 55.0 L 58.0 45.0 L 60.0 46.0 L 59.0 45.0 L 61.0 43.0 L 65.0 43.0 L 64.0 42.0 L 67.0 40.0 L 73.0 40.0 L 73.0 38.0 L 77.0 39.0 L 75.0 38.0 L 76.0 37.0 L 188.0 37.0 L 207.0 44.0 L 207.0 46.0 L 215.0 52.0 L 214.0 54.0 L 215.0 53.0 L 218.0 56.0 L 218.0 62.0 L 219.0 60.0 L 220.0 61.0 L 219.0 66.0 L 221.0 67.0 L 220.0 76.0 L 220.0 73.0 L 222.0 73.0 L 222.0 103.0 L 221.0 67.0 L 223.0 62.0 L 222.0 64.0 L 221.0 56.0 L 224.0 56.0 L 224.0 60.0 L 224.0 53.0 L 209.0 39.0 L 208.0 41.0 L 183.0 36.0 L 146.0 36.0 L 143.0 33.0 L 126.0 33.0 L 113.0 30.0 L 84.0 30.0 Z M 202.0 13.0 L 187.0 9.0 L 105.0 8.0 L 81.0 10.0 L 54.0 19.0 L 41.0 27.0 L 25.0 42.0 L 14.0 60.0 L 9.0 80.0 L 9.0 171.0 L 15.0 191.0 L 23.0 203.0 L 36.0 215.0 L 24.0 204.0 L 13.0 186.0 L 9.0 170.0 L 9.0 80.0 L 14.0 61.0 L 25.0 43.0 L 48.0 23.0 L 64.0 15.0 L 82.0 10.0 L 187.0 9.0 Z"/>
<path fill="rgb(181,106,102)" fill-rule="evenodd" d="M 237.0 358.0 L 229.0 352.0 L 224.0 352.0 L 208.0 363.0 L 203.0 363.0 L 204.0 364.0 L 200.0 367.0 L 208.0 364.0 L 221.0 355.0 L 224.0 356.0 L 221.0 359.0 L 225.0 356.0 Z M 377.0 256.0 L 373.0 254.0 L 371.0 258.0 L 370.0 287.0 L 364.0 295.0 L 355.0 300.0 L 306.0 300.0 L 298.0 296.0 L 288.0 282.0 L 287.0 286.0 L 289.0 293.0 L 295.0 301.0 L 297.0 300.0 L 297.0 302.0 L 301.0 302.0 L 301.0 304.0 L 362.0 304.0 L 365.0 302.0 L 364.0 300.0 L 370.0 293.0 L 374.0 283.0 L 375.0 262.0 Z M 614.0 77.0 L 612.0 85.0 L 611.0 79.0 L 612.0 158.0 L 610.0 165.0 L 613.0 162.0 L 614.0 156.0 Z M 236.0 71.0 L 235.0 191.0 L 236.0 183.0 L 237.0 201.0 L 238.0 80.0 Z M 473.0 26.0 L 503.0 25.0 L 505.0 28.0 L 543.0 29.0 L 562.0 31.0 L 576.0 35.0 L 597.0 34.0 L 609.0 41.0 L 619.0 53.0 L 604.0 37.0 L 592.0 30.0 L 580.0 26.0 Z M 547.0 26.0 L 571.0 25.0 L 588.0 30.0 L 570.0 31.0 L 549.0 28.0 Z M 430.0 50.0 L 426.0 43.0 L 417.0 35.0 L 408.0 30.0 L 392.0 25.0 L 278.0 25.0 L 326.0 26.0 L 327.0 27.0 L 324.0 28.0 L 370.0 30.0 L 373.0 32.0 L 398.0 35.0 L 410.0 33.0 L 422.0 39.0 Z M 366.0 26.0 L 387.0 25.0 L 400.0 29.0 L 398.0 31.0 L 370.0 29.0 Z"/>
<path fill="rgb(176,164,163)" fill-rule="evenodd" d="M 36.0 313.0 L 41.0 327.0 L 56.0 343.0 L 55.0 344.0 L 57.0 343.0 L 58.0 346.0 L 60.0 345.0 L 65.0 349.0 L 78.0 352.0 L 179.0 352.0 L 197.0 345.0 L 206.0 334.0 L 192.0 345.0 L 170.0 351.0 L 77.0 350.0 L 64.0 346.0 L 50.0 337.0 L 41.0 326.0 Z M 204.0 297.0 L 202.0 307.0 L 201.0 304.0 L 195.0 307.0 L 193.0 306.0 L 192.0 308.0 L 191.0 306.0 L 188.0 309.0 L 189.0 312.0 L 184.0 317.0 L 181.0 314.0 L 176.0 317.0 L 175.0 316.0 L 179.0 320.0 L 176.0 323.0 L 175.0 319.0 L 167.0 321.0 L 166.0 318.0 L 162.0 318.0 L 162.0 321.0 L 157.0 321.0 L 155.0 325.0 L 153.0 323.0 L 152.0 324.0 L 151.0 321.0 L 148.0 323.0 L 143.0 321.0 L 144.0 323.0 L 146.0 321.0 L 148.0 324.0 L 151.0 323.0 L 155.0 326.0 L 153.0 328.0 L 147.0 328.0 L 144.0 331.0 L 137.0 331.0 L 137.0 333.0 L 134.0 334.0 L 152.0 334.0 L 156.0 337.0 L 163.0 338.0 L 177.0 337.0 L 191.0 331.0 L 201.0 320.0 L 204.0 308.0 Z M 169.0 296.0 L 166.0 297.0 L 165.0 296.0 L 167.0 294.0 L 156.0 304.0 L 143.0 308.0 L 104.0 307.0 L 96.0 304.0 L 90.0 299.0 L 96.0 304.0 L 107.0 308.0 L 134.0 308.0 L 138.0 310.0 L 128.0 311.0 L 134.0 312.0 L 141.0 310.0 L 143.0 311.0 L 146.0 308.0 L 153.0 307.0 L 153.0 309.0 L 161.0 311.0 L 165.0 308.0 L 158.0 311.0 L 157.0 309.0 L 165.0 303.0 L 164.0 302.0 Z M 46.0 273.0 L 48.0 275.0 L 48.0 286.0 L 49.0 279.0 L 79.0 279.0 L 80.0 283.0 L 83.0 285.0 L 82.0 287.0 L 84.0 292.0 L 87.0 295.0 L 84.0 285.0 L 85.0 273.0 Z M 88.0 218.0 L 89.0 221.0 L 106.0 228.0 L 104.0 229.0 L 107.0 228.0 L 107.0 230.0 L 110.0 230.0 L 109.0 231.0 L 112.0 230.0 L 112.0 232.0 L 115.0 231.0 L 115.0 233.0 L 117.0 232.0 L 117.0 234.0 L 121.0 234.0 L 119.0 235.0 L 125.0 235.0 L 125.0 237.0 L 129.0 237.0 L 130.0 239.0 L 131.0 238.0 L 132.0 240.0 L 133.0 239.0 L 134.0 241.0 L 151.0 248.0 L 150.0 246.0 L 117.0 230.0 L 114.0 231.0 L 114.0 229.0 L 103.0 224.0 L 96.0 223.0 L 98.0 222.0 L 93.0 222.0 L 93.0 220.0 L 91.0 221.0 L 91.0 219.0 Z M 120.0 169.0 L 130.0 175.0 L 147.0 180.0 L 138.0 175.0 L 140.0 174.0 L 137.0 175.0 L 137.0 173.0 L 134.0 174.0 L 131.0 172.0 L 133.0 171.0 L 129.0 172.0 L 128.0 171.0 L 130.0 170.0 L 128.0 169.0 L 128.0 171.0 Z M 634.0 31.0 L 639.0 40.0 L 638.0 42.0 L 637.0 41.0 L 638.0 42.0 L 641.0 39.0 L 643.0 40.0 L 641.0 43.0 L 644.0 45.0 L 643.0 50.0 L 644.0 49.0 L 646.0 51.0 L 645.0 53.0 L 644.0 52.0 L 646.0 56.0 L 647.0 54.0 L 649.0 57.0 L 653.0 74.0 L 652.0 89.0 L 651.0 76.0 L 651.0 167.0 L 649.0 176.0 L 645.0 184.0 L 645.0 188.0 L 642.0 190.0 L 639.0 195.0 L 640.0 196.0 L 636.0 199.0 L 637.0 200.0 L 591.0 242.0 L 590.0 241.0 L 579.0 252.0 L 578.0 251.0 L 572.0 259.0 L 570.0 258.0 L 572.0 256.0 L 566.0 264.0 L 564.0 263.0 L 561.0 266.0 L 562.0 268.0 L 633.0 267.0 L 651.0 269.0 L 651.0 358.0 L 652.0 364.0 L 652.0 339.0 L 655.0 333.0 L 653.0 333.0 L 653.0 330.0 L 656.0 329.0 L 658.0 343.0 L 658.0 378.0 L 657.0 262.0 L 585.0 262.0 L 585.0 260.0 L 582.0 259.0 L 639.0 208.0 L 653.0 187.0 L 652.0 185.0 L 654.0 184.0 L 653.0 182.0 L 655.0 181.0 L 657.0 175.0 L 656.0 69.0 L 652.0 55.0 L 641.0 36.0 Z M 117.0 30.0 L 137.0 31.0 L 155.0 35.0 L 183.0 35.0 L 196.0 38.0 L 207.0 37.0 L 197.0 33.0 L 180.0 30.0 Z M 89.0 24.0 L 189.0 25.0 L 204.0 31.0 L 194.0 26.0 L 181.0 24.0 Z M 544.0 4.0 L 495.0 3.0 L 477.0 4.0 L 467.0 7.0 L 461.0 6.0 L 461.0 9.0 L 452.0 11.0 L 452.0 9.0 L 448.0 11.0 L 450.0 12.0 L 437.0 20.0 L 432.0 18.0 L 431.0 21.0 L 432.0 19.0 L 433.0 22.0 L 437.0 22.0 L 439.0 20.0 L 443.0 21.0 L 442.0 20.0 L 444.0 17.0 L 445.0 18.0 L 453.0 13.0 L 460.0 13.0 L 459.0 12.0 L 462.0 10.0 L 467.0 11.0 L 465.0 10.0 L 469.0 8.0 L 476.0 9.0 L 473.0 8.0 L 478.0 6.0 L 543.0 6.0 Z M 230.0 27.0 L 233.0 28.0 L 236.0 26.0 L 238.0 21.0 L 242.0 22.0 L 241.0 21.0 L 243.0 19.0 L 245.0 20.0 L 244.0 21.0 L 248.0 19.0 L 246.0 18.0 L 248.0 15.0 L 281.0 6.0 L 391.0 6.0 L 391.0 4.0 L 384.0 6.0 L 383.0 4.0 L 287.0 3.0 L 268.0 6.0 L 259.0 10.0 L 256.0 10.0 L 256.0 8.0 L 254.0 9.0 L 256.0 10.0 L 240.0 18.0 L 239.0 21.0 L 238.0 19.0 L 234.0 21.0 L 231.0 25.0 L 235.0 26.0 L 233.0 28.0 Z M 47.0 15.0 L 48.0 16.0 L 42.0 20.0 L 42.0 18.0 L 42.0 20.0 L 38.0 23.0 L 36.0 22.0 L 37.0 21.0 L 31.0 28.0 L 30.0 27.0 L 32.0 25.0 L 24.0 33.0 L 25.0 34.0 L 18.0 39.0 L 20.0 37.0 L 21.0 38.0 L 18.0 42.0 L 16.0 42.0 L 17.0 41.0 L 18.0 43.0 L 15.0 46.0 L 14.0 45.0 L 15.0 48.0 L 13.0 51.0 L 9.0 53.0 L 8.0 56.0 L 9.0 54.0 L 10.0 57.0 L 5.0 69.0 L 4.0 66.0 L 5.0 74.0 L 3.0 83.0 L 1.0 76.0 L 3.0 84.0 L 2.0 171.0 L 4.0 171.0 L 4.0 182.0 L 11.0 199.0 L 21.0 212.0 L 29.0 219.0 L 28.0 220.0 L 30.0 219.0 L 33.0 222.0 L 34.0 221.0 L 36.0 224.0 L 35.0 225.0 L 37.0 223.0 L 39.0 226.0 L 38.0 227.0 L 40.0 226.0 L 47.0 231.0 L 46.0 233.0 L 45.0 232.0 L 37.0 236.0 L 31.0 236.0 L 26.0 240.0 L 18.0 240.0 L 20.0 240.0 L 20.0 242.0 L 13.0 240.0 L 14.0 242.0 L 13.0 243.0 L 11.0 241.0 L 10.0 245.0 L 11.0 315.0 L 15.0 332.0 L 21.0 344.0 L 31.0 356.0 L 48.0 368.0 L 60.0 373.0 L 77.0 377.0 L 150.0 377.0 L 77.0 377.0 L 66.0 374.0 L 57.0 368.0 L 59.0 367.0 L 66.0 370.0 L 79.0 372.0 L 175.0 372.0 L 184.0 371.0 L 202.0 365.0 L 224.0 351.0 L 229.0 351.0 L 238.0 358.0 L 249.0 363.0 L 236.0 356.0 L 227.0 348.0 L 224.0 348.0 L 205.0 363.0 L 183.0 371.0 L 83.0 372.0 L 67.0 369.0 L 48.0 361.0 L 32.0 348.0 L 23.0 335.0 L 17.0 314.0 L 17.0 250.0 L 19.0 250.0 L 18.0 249.0 L 22.0 246.0 L 68.0 235.0 L 63.0 231.0 L 65.0 230.0 L 62.0 231.0 L 62.0 229.0 L 60.0 230.0 L 60.0 228.0 L 56.0 228.0 L 55.0 226.0 L 37.0 217.0 L 37.0 215.0 L 36.0 216.0 L 30.0 211.0 L 31.0 210.0 L 29.0 210.0 L 17.0 196.0 L 18.0 194.0 L 16.0 194.0 L 17.0 192.0 L 16.0 193.0 L 13.0 189.0 L 13.0 183.0 L 11.0 183.0 L 9.0 172.0 L 7.0 171.0 L 8.0 80.0 L 10.0 80.0 L 9.0 73.0 L 13.0 62.0 L 12.0 59.0 L 14.0 59.0 L 18.0 50.0 L 34.0 32.0 L 33.0 31.0 L 35.0 29.0 L 37.0 30.0 L 36.0 31.0 L 39.0 26.0 L 43.0 25.0 L 44.0 22.0 L 46.0 23.0 L 45.0 24.0 L 53.0 19.0 L 50.0 19.0 L 52.0 17.0 L 56.0 16.0 L 56.0 18.0 L 58.0 17.0 L 58.0 14.0 L 60.0 14.0 L 60.0 16.0 L 65.0 14.0 L 60.0 14.0 L 63.0 12.0 L 71.0 12.0 L 69.0 11.0 L 70.0 10.0 L 80.0 10.0 L 78.0 9.0 L 79.0 8.0 L 87.0 9.0 L 82.0 8.0 L 87.0 5.0 L 105.0 6.0 L 120.0 4.0 L 96.0 5.0 L 84.0 4.0 L 81.0 2.0 L 80.0 3.0 L 84.0 4.0 L 74.0 7.0 L 68.0 6.0 L 70.0 7.0 L 50.0 16.0 Z"/>
<path fill="rgb(210,206,207)" fill-rule="evenodd" d="M 215.0 316.0 L 210.0 330.0 L 200.0 342.0 L 212.0 330.0 L 217.0 318.0 Z M 34.0 312.0 L 36.0 321.0 L 42.0 332.0 L 51.0 341.0 L 60.0 346.0 L 45.0 334.0 L 40.0 327.0 Z M 204.0 253.0 L 203.0 258.0 L 200.0 260.0 L 199.0 252.0 L 197.0 250.0 L 196.0 252.0 L 197.0 251.0 L 199.0 254.0 L 197.0 256.0 L 198.0 260.0 L 193.0 261.0 L 191.0 264.0 L 188.0 263.0 L 185.0 267.0 L 186.0 272.0 L 183.0 275.0 L 179.0 293.0 L 173.0 300.0 L 170.0 300.0 L 157.0 311.0 L 153.0 310.0 L 152.0 308.0 L 146.0 309.0 L 143.0 312.0 L 139.0 310.0 L 141.0 311.0 L 133.0 313.0 L 127.0 311.0 L 137.0 310.0 L 107.0 309.0 L 99.0 306.0 L 102.0 305.0 L 95.0 302.0 L 93.0 303.0 L 87.0 293.0 L 88.0 295.0 L 85.0 295.0 L 79.0 280.0 L 59.0 280.0 L 56.0 278.0 L 56.0 280.0 L 49.0 280.0 L 48.0 287.0 L 47.0 275.0 L 45.0 273.0 L 57.0 272.0 L 44.0 272.0 L 46.0 274.0 L 47.0 308.0 L 54.0 323.0 L 62.0 331.0 L 75.0 337.0 L 169.0 340.0 L 170.0 338.0 L 156.0 338.0 L 152.0 335.0 L 135.0 336.0 L 133.0 334.0 L 135.0 332.0 L 136.0 333.0 L 137.0 330.0 L 144.0 330.0 L 150.0 326.0 L 153.0 327.0 L 157.0 320.0 L 162.0 320.0 L 162.0 317.0 L 166.0 317.0 L 167.0 320.0 L 175.0 318.0 L 177.0 320.0 L 176.0 322.0 L 178.0 320.0 L 175.0 317.0 L 177.0 315.0 L 178.0 317.0 L 183.0 317.0 L 191.0 309.0 L 189.0 311.0 L 187.0 309.0 L 191.0 305.0 L 192.0 307.0 L 193.0 305.0 L 195.0 306.0 L 201.0 303.0 L 202.0 306.0 L 204.0 296.0 L 205.0 308.0 L 202.0 318.0 L 203.0 320.0 L 203.0 315.0 L 205.0 315.0 Z M 29.0 156.0 L 28.0 161.0 L 30.0 175.0 L 37.0 189.0 L 36.0 191.0 L 37.0 190.0 L 39.0 192.0 L 39.0 195.0 L 43.0 199.0 L 44.0 198.0 L 54.0 207.0 L 70.0 215.0 L 122.0 235.0 L 100.0 226.0 L 99.0 223.0 L 96.0 222.0 L 97.0 223.0 L 95.0 224.0 L 89.0 222.0 L 87.0 218.0 L 64.0 209.0 L 46.0 198.0 L 36.0 186.0 L 30.0 173.0 Z M 584.0 42.0 L 592.0 48.0 L 593.0 47.0 L 605.0 59.0 L 610.0 71.0 L 611.0 68.0 L 612.0 70.0 L 610.0 63.0 L 599.0 49.0 L 596.0 49.0 L 594.0 47.0 L 595.0 46.0 L 593.0 47.0 L 589.0 44.0 L 590.0 43.0 L 588.0 44.0 Z M 210.0 59.0 L 195.0 46.0 L 183.0 43.0 L 93.0 42.0 L 70.0 46.0 L 66.0 48.0 L 65.0 51.0 L 63.0 50.0 L 63.0 52.0 L 58.0 56.0 L 57.0 55.0 L 60.0 52.0 L 51.0 61.0 L 45.0 77.0 L 45.0 160.0 L 50.0 175.0 L 48.0 168.0 L 50.0 167.0 L 48.0 168.0 L 46.0 164.0 L 50.0 164.0 L 47.0 161.0 L 51.0 158.0 L 52.0 161.0 L 52.0 151.0 L 53.0 150.0 L 56.0 152.0 L 53.0 150.0 L 57.0 145.0 L 56.0 144.0 L 62.0 141.0 L 58.0 141.0 L 57.0 135.0 L 59.0 134.0 L 59.0 137.0 L 62.0 138.0 L 65.0 137.0 L 61.0 136.0 L 60.0 133.0 L 62.0 130.0 L 64.0 130.0 L 65.0 133.0 L 64.0 128.0 L 62.0 127.0 L 67.0 125.0 L 65.0 124.0 L 70.0 120.0 L 69.0 116.0 L 70.0 115.0 L 72.0 117.0 L 74.0 126.0 L 75.0 125.0 L 78.0 129.0 L 84.0 128.0 L 84.0 98.0 L 87.0 88.0 L 98.0 77.0 L 110.0 72.0 L 137.0 71.0 L 138.0 69.0 L 140.0 70.0 L 139.0 71.0 L 154.0 70.0 L 156.0 72.0 L 160.0 70.0 L 160.0 72.0 L 161.0 69.0 L 163.0 70.0 L 167.0 67.0 L 171.0 67.0 L 173.0 70.0 L 177.0 71.0 L 178.0 69.0 L 183.0 68.0 L 184.0 65.0 L 185.0 69.0 L 186.0 65.0 L 191.0 67.0 L 189.0 68.0 L 192.0 68.0 L 193.0 71.0 L 194.0 70.0 L 200.0 74.0 L 202.0 73.0 L 204.0 76.0 L 212.0 76.0 L 211.0 80.0 L 214.0 87.0 L 214.0 106.0 L 214.0 70.0 Z M 3.0 74.0 L 3.0 82.0 L 4.0 69.0 L 10.0 53.0 L 20.0 38.0 L 31.0 27.0 L 48.0 15.0 L 70.0 6.0 L 84.0 3.0 L 95.0 3.0 L 98.0 5.0 L 98.0 3.0 L 121.0 4.0 L 117.0 6.0 L 112.0 5.0 L 105.0 7.0 L 88.0 7.0 L 88.0 5.0 L 83.0 8.0 L 183.0 7.0 L 212.0 15.0 L 231.0 27.0 L 261.0 12.0 L 284.0 7.0 L 392.0 7.0 L 415.0 13.0 L 433.0 24.0 L 436.0 24.0 L 460.0 12.0 L 472.0 9.0 L 453.0 14.0 L 437.0 23.0 L 432.0 22.0 L 432.0 17.0 L 437.0 19.0 L 452.0 10.0 L 477.0 3.0 L 535.0 2.0 L 545.0 4.0 L 543.0 7.0 L 487.0 6.0 L 474.0 8.0 L 584.0 8.0 L 601.0 13.0 L 615.0 20.0 L 635.0 37.0 L 647.0 55.0 L 651.0 69.0 L 652.0 88.0 L 650.0 63.0 L 643.0 49.0 L 643.0 45.0 L 641.0 44.0 L 643.0 42.0 L 644.0 43.0 L 641.0 42.0 L 642.0 40.0 L 639.0 42.0 L 636.0 38.0 L 637.0 36.0 L 636.0 37.0 L 634.0 35.0 L 634.0 30.0 L 642.0 36.0 L 653.0 55.0 L 658.0 78.0 L 658.0 162.0 L 658.0 75.0 L 656.0 62.0 L 651.0 49.0 L 643.0 36.0 L 634.0 26.0 L 622.0 17.0 L 621.0 18.0 L 619.0 15.0 L 618.0 16.0 L 607.0 9.0 L 602.0 9.0 L 602.0 7.0 L 579.0 2.0 L 482.0 2.0 L 456.0 8.0 L 437.0 18.0 L 434.0 18.0 L 412.0 6.0 L 392.0 2.0 L 284.0 2.0 L 260.0 7.0 L 240.0 16.0 L 235.0 20.0 L 231.0 20.0 L 209.0 8.0 L 184.0 2.0 L 91.0 2.0 L 61.0 9.0 L 46.0 16.0 L 33.0 25.0 L 22.0 35.0 L 13.0 47.0 L 7.0 59.0 Z M 230.0 25.0 L 234.0 20.0 L 238.0 18.0 L 239.0 20.0 L 240.0 17.0 L 256.0 9.0 L 268.0 5.0 L 287.0 2.0 L 383.0 3.0 L 384.0 5.0 L 387.0 3.0 L 392.0 4.0 L 391.0 7.0 L 281.0 7.0 L 248.0 16.0 L 236.0 25.0 Z"/>
<path fill="rgb(240,238,238)" fill-rule="evenodd" d="M 490.0 305.0 L 606.0 306.0 L 609.0 305.0 L 609.0 302.0 L 493.0 302.0 L 494.0 303.0 Z M 45.0 274.0 L 46.0 310.0 L 51.0 322.0 L 64.0 334.0 L 74.0 338.0 L 87.0 340.0 L 152.0 340.0 L 81.0 339.0 L 72.0 337.0 L 62.0 332.0 L 53.0 323.0 L 46.0 308.0 Z M 577.0 128.0 L 571.0 129.0 L 571.0 134.0 L 567.0 143.0 L 554.0 159.0 L 449.0 249.0 L 443.0 259.0 L 442.0 269.0 L 445.0 274.0 L 445.0 263.0 L 451.0 252.0 L 551.0 166.0 L 570.0 146.0 Z M 440.0 69.0 L 441.0 71.0 L 447.0 59.0 L 457.0 50.0 L 467.0 44.0 L 478.0 41.0 L 576.0 41.0 L 587.0 45.0 L 589.0 43.0 L 591.0 47.0 L 590.0 46.0 L 592.0 45.0 L 599.0 50.0 L 588.0 42.0 L 573.0 38.0 L 477.0 38.0 L 463.0 42.0 L 453.0 48.0 L 443.0 59.0 Z M 240.0 63.0 L 241.0 62.0 L 242.0 65.0 L 244.0 61.0 L 259.0 48.0 L 281.0 41.0 L 389.0 41.0 L 400.0 44.0 L 406.0 48.0 L 407.0 47.0 L 415.0 55.0 L 414.0 54.0 L 416.0 53.0 L 421.0 60.0 L 416.0 52.0 L 406.0 44.0 L 387.0 38.0 L 279.0 38.0 L 264.0 42.0 L 254.0 47.0 L 243.0 57.0 Z M 69.0 42.0 L 57.0 49.0 L 50.0 56.0 L 43.0 71.0 L 42.0 162.0 L 45.0 173.0 L 51.0 183.0 L 66.0 194.0 L 149.0 229.0 L 160.0 237.0 L 164.0 242.0 L 169.0 255.0 L 169.0 281.0 L 164.0 291.0 L 154.0 299.0 L 146.0 301.0 L 111.0 301.0 L 101.0 298.0 L 92.0 290.0 L 89.0 282.0 L 89.0 268.0 L 43.0 269.0 L 45.0 272.0 L 85.0 272.0 L 87.0 292.0 L 94.0 301.0 L 100.0 304.0 L 111.0 306.0 L 145.0 306.0 L 155.0 303.0 L 166.0 294.0 L 171.0 283.0 L 171.0 269.0 L 174.0 266.0 L 179.0 266.0 L 181.0 268.0 L 180.0 286.0 L 175.0 296.0 L 169.0 302.0 L 176.0 296.0 L 180.0 289.0 L 182.0 275.0 L 185.0 272.0 L 184.0 267.0 L 188.0 262.0 L 191.0 263.0 L 193.0 260.0 L 197.0 260.0 L 196.0 256.0 L 198.0 254.0 L 196.0 250.0 L 198.0 249.0 L 201.0 256.0 L 200.0 259.0 L 202.0 258.0 L 203.0 253.0 L 205.0 253.0 L 206.0 308.0 L 201.0 323.0 L 193.0 331.0 L 201.0 323.0 L 206.0 310.0 L 207.0 232.0 L 205.0 219.0 L 202.0 213.0 L 196.0 206.0 L 188.0 201.0 L 96.0 163.0 L 82.0 150.0 L 77.0 141.0 L 76.0 134.0 L 80.0 132.0 L 84.0 133.0 L 91.0 147.0 L 107.0 160.0 L 190.0 193.0 L 201.0 199.0 L 209.0 207.0 L 214.0 216.0 L 217.0 231.0 L 217.0 311.0 L 218.0 222.0 L 212.0 207.0 L 206.0 200.0 L 194.0 193.0 L 107.0 157.0 L 94.0 146.0 L 88.0 132.0 L 89.0 94.0 L 96.0 83.0 L 111.0 76.0 L 147.0 76.0 L 157.0 79.0 L 166.0 87.0 L 169.0 93.0 L 170.0 111.0 L 218.0 111.0 L 219.0 71.0 L 215.0 57.0 L 203.0 44.0 L 185.0 38.0 L 88.0 38.0 Z M 45.0 165.0 L 44.0 77.0 L 50.0 61.0 L 55.0 55.0 L 66.0 47.0 L 81.0 42.0 L 93.0 41.0 L 183.0 42.0 L 195.0 45.0 L 211.0 59.0 L 215.0 70.0 L 214.0 107.0 L 212.0 105.0 L 213.0 87.0 L 210.0 80.0 L 211.0 78.0 L 212.0 79.0 L 211.0 76.0 L 209.0 78.0 L 207.0 76.0 L 208.0 75.0 L 204.0 77.0 L 202.0 74.0 L 198.0 74.0 L 198.0 72.0 L 193.0 72.0 L 192.0 69.0 L 191.0 70.0 L 188.0 68.0 L 190.0 67.0 L 186.0 66.0 L 185.0 70.0 L 184.0 66.0 L 183.0 69.0 L 178.0 67.0 L 176.0 69.0 L 178.0 70.0 L 177.0 72.0 L 173.0 71.0 L 171.0 68.0 L 167.0 68.0 L 156.0 73.0 L 154.0 71.0 L 139.0 72.0 L 138.0 71.0 L 140.0 69.0 L 137.0 72.0 L 110.0 73.0 L 98.0 78.0 L 88.0 88.0 L 85.0 98.0 L 85.0 128.0 L 78.0 130.0 L 71.0 121.0 L 71.0 114.0 L 71.0 120.0 L 66.0 124.0 L 68.0 125.0 L 64.0 126.0 L 63.0 124.0 L 65.0 130.0 L 61.0 133.0 L 60.0 132.0 L 61.0 135.0 L 65.0 135.0 L 66.0 137.0 L 62.0 139.0 L 59.0 138.0 L 58.0 135.0 L 59.0 141.0 L 61.0 142.0 L 57.0 144.0 L 58.0 145.0 L 53.0 151.0 L 54.0 153.0 L 52.0 157.0 L 54.0 159.0 L 52.0 162.0 L 51.0 159.0 L 48.0 161.0 L 47.0 157.0 L 47.0 160.0 L 51.0 164.0 L 49.0 166.0 L 48.0 164.0 L 46.0 166.0 Z M 207.0 33.0 L 187.0 26.0 L 86.0 26.0 L 64.0 31.0 L 44.0 43.0 L 33.0 56.0 L 26.0 77.0 L 26.0 159.0 L 28.0 174.0 L 37.0 192.0 L 45.0 200.0 L 33.0 185.0 L 28.0 171.0 L 28.0 77.0 L 36.0 55.0 L 52.0 38.0 L 66.0 31.0 L 78.0 27.0 L 105.0 26.0 L 107.0 28.0 L 176.0 28.0 L 201.0 33.0 L 212.0 39.0 L 221.0 47.0 Z"/>
</svg>